<svg xmlns="http://www.w3.org/2000/svg" xmlns:xlink="http://www.w3.org/1999/xlink" width="325" zoomAndPan="magnify" viewBox="0 0 243.75 76.499998" height="102" preserveAspectRatio="xMidYMid meet" version="1.0"><defs><g/><clipPath id="7cfafa80d9"><path d="M 24 8.484375 L 34 8.484375 L 34 22 L 24 22 Z M 24 8.484375 " clip-rule="nonzero"/></clipPath><clipPath id="1aa3276b4f"><path d="M 8.917969 9 L 34 9 L 34 34 L 8.917969 34 Z M 8.917969 9 " clip-rule="nonzero"/></clipPath><clipPath id="2aa76d3792"><path d="M 33.765625 9.007812 C 33.777344 10.660156 33.582031 16.121094 30.898438 21.453125 C 30.054688 23.128906 28.964844 24.792969 27.550781 26.324219 C 23.894531 30.289062 18.097656 33.339844 8.917969 33.339844 L 8.917969 24.027344 C 15.6875 24.027344 20.617188 22.988281 24.207031 21.453125 C 25.484375 20.902344 26.59375 20.292969 27.554688 19.640625 C 33.203125 15.8125 33.742188 10.625 33.765625 9.007812 Z M 33.765625 9.007812 " clip-rule="nonzero"/></clipPath><linearGradient x1="-0.00000467381" gradientTransform="matrix(0.103318, 0, 0, 0.103318, 8.918374, 8.503739)" y1="122.636002" x2="240.600008" gradientUnits="userSpaceOnUse" y2="122.636002" id="8d6a571d43"><stop stop-opacity="1" stop-color="rgb(85.099792%, 85.099792%, 85.099792%)" offset="0"/><stop stop-opacity="1" stop-color="rgb(85.099792%, 85.099792%, 85.099792%)" offset="0.03125"/><stop stop-opacity="1" stop-color="rgb(85.006714%, 85.006714%, 85.006714%)" offset="0.046875"/><stop stop-opacity="1" stop-color="rgb(84.750366%, 84.750366%, 84.750366%)" offset="0.0625"/><stop stop-opacity="1" stop-color="rgb(84.422302%, 84.422302%, 84.422302%)" offset="0.078125"/><stop stop-opacity="1" stop-color="rgb(84.094238%, 84.094238%, 84.094238%)" offset="0.09375"/><stop stop-opacity="1" stop-color="rgb(83.7677%, 83.7677%, 83.7677%)" offset="0.109375"/><stop stop-opacity="1" stop-color="rgb(83.439636%, 83.439636%, 83.439636%)" offset="0.125"/><stop stop-opacity="1" stop-color="rgb(83.111572%, 83.111572%, 83.111572%)" offset="0.140625"/><stop stop-opacity="1" stop-color="rgb(82.783508%, 82.783508%, 82.783508%)" offset="0.15625"/><stop stop-opacity="1" stop-color="rgb(82.45697%, 82.45697%, 82.45697%)" offset="0.171875"/><stop stop-opacity="1" stop-color="rgb(82.128906%, 82.128906%, 82.128906%)" offset="0.1875"/><stop stop-opacity="1" stop-color="rgb(81.800842%, 81.800842%, 81.800842%)" offset="0.203125"/><stop stop-opacity="1" stop-color="rgb(81.472778%, 81.472778%, 81.472778%)" offset="0.21875"/><stop stop-opacity="1" stop-color="rgb(81.14624%, 81.14624%, 81.14624%)" offset="0.234375"/><stop stop-opacity="1" stop-color="rgb(80.818176%, 80.818176%, 80.818176%)" offset="0.25"/><stop stop-opacity="1" stop-color="rgb(80.490112%, 80.490112%, 80.490112%)" offset="0.265625"/><stop stop-opacity="1" stop-color="rgb(80.162048%, 80.162048%, 80.162048%)" offset="0.28125"/><stop stop-opacity="1" stop-color="rgb(79.833984%, 79.833984%, 79.833984%)" offset="0.296875"/><stop stop-opacity="1" stop-color="rgb(79.507446%, 79.507446%, 79.507446%)" offset="0.3125"/><stop stop-opacity="1" stop-color="rgb(79.179382%, 79.179382%, 79.179382%)" offset="0.328125"/><stop stop-opacity="1" stop-color="rgb(78.851318%, 78.851318%, 78.851318%)" offset="0.34375"/><stop stop-opacity="1" stop-color="rgb(78.523254%, 78.523254%, 78.523254%)" offset="0.359375"/><stop stop-opacity="1" stop-color="rgb(78.196716%, 78.196716%, 78.196716%)" offset="0.375"/><stop stop-opacity="1" stop-color="rgb(77.868652%, 77.868652%, 77.868652%)" offset="0.390625"/><stop stop-opacity="1" stop-color="rgb(77.540588%, 77.540588%, 77.540588%)" offset="0.40625"/><stop stop-opacity="1" stop-color="rgb(77.212524%, 77.212524%, 77.212524%)" offset="0.421875"/><stop stop-opacity="1" stop-color="rgb(76.885986%, 76.885986%, 76.885986%)" offset="0.4375"/><stop stop-opacity="1" stop-color="rgb(76.557922%, 76.557922%, 76.557922%)" offset="0.453125"/><stop stop-opacity="1" stop-color="rgb(76.229858%, 76.229858%, 76.229858%)" offset="0.46875"/><stop stop-opacity="1" stop-color="rgb(75.901794%, 75.901794%, 75.901794%)" offset="0.484375"/><stop stop-opacity="1" stop-color="rgb(75.57373%, 75.57373%, 75.57373%)" offset="0.5"/><stop stop-opacity="1" stop-color="rgb(75.247192%, 75.247192%, 75.247192%)" offset="0.515625"/><stop stop-opacity="1" stop-color="rgb(74.919128%, 74.919128%, 74.919128%)" offset="0.53125"/><stop stop-opacity="1" stop-color="rgb(74.591064%, 74.591064%, 74.591064%)" offset="0.546875"/><stop stop-opacity="1" stop-color="rgb(74.263%, 74.263%, 74.263%)" offset="0.5625"/><stop stop-opacity="1" stop-color="rgb(73.936462%, 73.936462%, 73.936462%)" offset="0.578125"/><stop stop-opacity="1" stop-color="rgb(73.608398%, 73.608398%, 73.608398%)" offset="0.59375"/><stop stop-opacity="1" stop-color="rgb(73.280334%, 73.280334%, 73.280334%)" offset="0.609375"/><stop stop-opacity="1" stop-color="rgb(72.952271%, 72.952271%, 72.952271%)" offset="0.625"/><stop stop-opacity="1" stop-color="rgb(72.625732%, 72.625732%, 72.625732%)" offset="0.640625"/><stop stop-opacity="1" stop-color="rgb(72.297668%, 72.297668%, 72.297668%)" offset="0.65625"/><stop stop-opacity="1" stop-color="rgb(71.969604%, 71.969604%, 71.969604%)" offset="0.671875"/><stop stop-opacity="1" stop-color="rgb(71.641541%, 71.641541%, 71.641541%)" offset="0.6875"/><stop stop-opacity="1" stop-color="rgb(71.313477%, 71.313477%, 71.313477%)" offset="0.703125"/><stop stop-opacity="1" stop-color="rgb(70.986938%, 70.986938%, 70.986938%)" offset="0.71875"/><stop stop-opacity="1" stop-color="rgb(70.658875%, 70.658875%, 70.658875%)" offset="0.734375"/><stop stop-opacity="1" stop-color="rgb(70.330811%, 70.330811%, 70.330811%)" offset="0.75"/><stop stop-opacity="1" stop-color="rgb(70.002747%, 70.002747%, 70.002747%)" offset="0.765625"/><stop stop-opacity="1" stop-color="rgb(69.676208%, 69.676208%, 69.676208%)" offset="0.78125"/><stop stop-opacity="1" stop-color="rgb(69.348145%, 69.348145%, 69.348145%)" offset="0.796875"/><stop stop-opacity="1" stop-color="rgb(69.020081%, 69.020081%, 69.020081%)" offset="0.8125"/><stop stop-opacity="1" stop-color="rgb(68.692017%, 68.692017%, 68.692017%)" offset="0.828125"/><stop stop-opacity="1" stop-color="rgb(68.365479%, 68.365479%, 68.365479%)" offset="0.84375"/><stop stop-opacity="1" stop-color="rgb(68.037415%, 68.037415%, 68.037415%)" offset="0.859375"/><stop stop-opacity="1" stop-color="rgb(67.709351%, 67.709351%, 67.709351%)" offset="0.875"/><stop stop-opacity="1" stop-color="rgb(67.381287%, 67.381287%, 67.381287%)" offset="0.890625"/><stop stop-opacity="1" stop-color="rgb(67.053223%, 67.053223%, 67.053223%)" offset="0.90625"/><stop stop-opacity="1" stop-color="rgb(66.726685%, 66.726685%, 66.726685%)" offset="0.921875"/><stop stop-opacity="1" stop-color="rgb(66.398621%, 66.398621%, 66.398621%)" offset="0.9375"/><stop stop-opacity="1" stop-color="rgb(66.070557%, 66.070557%, 66.070557%)" offset="0.953125"/><stop stop-opacity="1" stop-color="rgb(65.742493%, 65.742493%, 65.742493%)" offset="0.96875"/><stop stop-opacity="1" stop-color="rgb(65.415955%, 65.415955%, 65.415955%)" offset="0.984375"/><stop stop-opacity="1" stop-color="rgb(65.174866%, 65.174866%, 65.174866%)" offset="1"/></linearGradient><clipPath id="9573f67999"><path d="M 24 32 L 34 32 L 34 45.742188 L 24 45.742188 Z M 24 32 " clip-rule="nonzero"/></clipPath><clipPath id="69ad77a7af"><path d="M 24 20 L 49.15625 20 L 49.15625 45.742188 L 24 45.742188 Z M 24 20 " clip-rule="nonzero"/></clipPath><clipPath id="233af50c0c"><path d="M 24.445312 45.253906 C 24.433594 43.601562 24.625 38.140625 27.308594 32.808594 C 28.15625 31.132812 29.246094 29.46875 30.65625 27.9375 C 34.3125 23.972656 40.109375 20.921875 49.292969 20.921875 L 49.292969 30.234375 C 42.523438 30.234375 37.59375 31.273438 34.003906 32.808594 C 32.726562 33.359375 31.617188 33.96875 30.65625 34.621094 C 25.007812 38.449219 24.46875 43.640625 24.445312 45.253906 Z M 24.445312 45.253906 " clip-rule="nonzero"/></clipPath><linearGradient x1="168.754295" gradientTransform="matrix(-0.103318, 0, 0, -0.103318, 66.590761, 29.185549)" y1="-37.771" x2="408.042035" gradientUnits="userSpaceOnUse" y2="-37.771" id="4ae12e7d2d"><stop stop-opacity="1" stop-color="rgb(85.099792%, 85.099792%, 85.099792%)" offset="0"/><stop stop-opacity="1" stop-color="rgb(85.099792%, 85.099792%, 85.099792%)" offset="0.03125"/><stop stop-opacity="1" stop-color="rgb(84.951782%, 84.951782%, 84.951782%)" offset="0.046875"/><stop stop-opacity="1" stop-color="rgb(84.642029%, 84.642029%, 84.642029%)" offset="0.0625"/><stop stop-opacity="1" stop-color="rgb(84.315491%, 84.315491%, 84.315491%)" offset="0.078125"/><stop stop-opacity="1" stop-color="rgb(83.990479%, 83.990479%, 83.990479%)" offset="0.09375"/><stop stop-opacity="1" stop-color="rgb(83.66394%, 83.66394%, 83.66394%)" offset="0.109375"/><stop stop-opacity="1" stop-color="rgb(83.338928%, 83.338928%, 83.338928%)" offset="0.125"/><stop stop-opacity="1" stop-color="rgb(83.01239%, 83.01239%, 83.01239%)" offset="0.140625"/><stop stop-opacity="1" stop-color="rgb(82.685852%, 82.685852%, 82.685852%)" offset="0.15625"/><stop stop-opacity="1" stop-color="rgb(82.36084%, 82.36084%, 82.36084%)" offset="0.171875"/><stop stop-opacity="1" stop-color="rgb(82.034302%, 82.034302%, 82.034302%)" offset="0.1875"/><stop stop-opacity="1" stop-color="rgb(81.70929%, 81.70929%, 81.70929%)" offset="0.203125"/><stop stop-opacity="1" stop-color="rgb(81.382751%, 81.382751%, 81.382751%)" offset="0.21875"/><stop stop-opacity="1" stop-color="rgb(81.056213%, 81.056213%, 81.056213%)" offset="0.234375"/><stop stop-opacity="1" stop-color="rgb(80.731201%, 80.731201%, 80.731201%)" offset="0.25"/><stop stop-opacity="1" stop-color="rgb(80.404663%, 80.404663%, 80.404663%)" offset="0.265625"/><stop stop-opacity="1" stop-color="rgb(80.079651%, 80.079651%, 80.079651%)" offset="0.28125"/><stop stop-opacity="1" stop-color="rgb(79.753113%, 79.753113%, 79.753113%)" offset="0.296875"/><stop stop-opacity="1" stop-color="rgb(79.426575%, 79.426575%, 79.426575%)" offset="0.3125"/><stop stop-opacity="1" stop-color="rgb(79.101562%, 79.101562%, 79.101562%)" offset="0.328125"/><stop stop-opacity="1" stop-color="rgb(78.775024%, 78.775024%, 78.775024%)" offset="0.34375"/><stop stop-opacity="1" stop-color="rgb(78.450012%, 78.450012%, 78.450012%)" offset="0.359375"/><stop stop-opacity="1" stop-color="rgb(78.123474%, 78.123474%, 78.123474%)" offset="0.375"/><stop stop-opacity="1" stop-color="rgb(77.796936%, 77.796936%, 77.796936%)" offset="0.390625"/><stop stop-opacity="1" stop-color="rgb(77.471924%, 77.471924%, 77.471924%)" offset="0.40625"/><stop stop-opacity="1" stop-color="rgb(77.145386%, 77.145386%, 77.145386%)" offset="0.421875"/><stop stop-opacity="1" stop-color="rgb(76.820374%, 76.820374%, 76.820374%)" offset="0.4375"/><stop stop-opacity="1" stop-color="rgb(76.493835%, 76.493835%, 76.493835%)" offset="0.453125"/><stop stop-opacity="1" stop-color="rgb(76.167297%, 76.167297%, 76.167297%)" offset="0.46875"/><stop stop-opacity="1" stop-color="rgb(75.842285%, 75.842285%, 75.842285%)" offset="0.484375"/><stop stop-opacity="1" stop-color="rgb(75.515747%, 75.515747%, 75.515747%)" offset="0.5"/><stop stop-opacity="1" stop-color="rgb(75.190735%, 75.190735%, 75.190735%)" offset="0.515625"/><stop stop-opacity="1" stop-color="rgb(74.864197%, 74.864197%, 74.864197%)" offset="0.53125"/><stop stop-opacity="1" stop-color="rgb(74.539185%, 74.539185%, 74.539185%)" offset="0.546875"/><stop stop-opacity="1" stop-color="rgb(74.212646%, 74.212646%, 74.212646%)" offset="0.5625"/><stop stop-opacity="1" stop-color="rgb(73.886108%, 73.886108%, 73.886108%)" offset="0.578125"/><stop stop-opacity="1" stop-color="rgb(73.561096%, 73.561096%, 73.561096%)" offset="0.59375"/><stop stop-opacity="1" stop-color="rgb(73.234558%, 73.234558%, 73.234558%)" offset="0.609375"/><stop stop-opacity="1" stop-color="rgb(72.909546%, 72.909546%, 72.909546%)" offset="0.625"/><stop stop-opacity="1" stop-color="rgb(72.583008%, 72.583008%, 72.583008%)" offset="0.640625"/><stop stop-opacity="1" stop-color="rgb(72.25647%, 72.25647%, 72.25647%)" offset="0.65625"/><stop stop-opacity="1" stop-color="rgb(71.931458%, 71.931458%, 71.931458%)" offset="0.671875"/><stop stop-opacity="1" stop-color="rgb(71.604919%, 71.604919%, 71.604919%)" offset="0.6875"/><stop stop-opacity="1" stop-color="rgb(71.279907%, 71.279907%, 71.279907%)" offset="0.703125"/><stop stop-opacity="1" stop-color="rgb(70.953369%, 70.953369%, 70.953369%)" offset="0.71875"/><stop stop-opacity="1" stop-color="rgb(70.626831%, 70.626831%, 70.626831%)" offset="0.734375"/><stop stop-opacity="1" stop-color="rgb(70.301819%, 70.301819%, 70.301819%)" offset="0.75"/><stop stop-opacity="1" stop-color="rgb(69.975281%, 69.975281%, 69.975281%)" offset="0.765625"/><stop stop-opacity="1" stop-color="rgb(69.650269%, 69.650269%, 69.650269%)" offset="0.78125"/><stop stop-opacity="1" stop-color="rgb(69.32373%, 69.32373%, 69.32373%)" offset="0.796875"/><stop stop-opacity="1" stop-color="rgb(68.997192%, 68.997192%, 68.997192%)" offset="0.8125"/><stop stop-opacity="1" stop-color="rgb(68.67218%, 68.67218%, 68.67218%)" offset="0.828125"/><stop stop-opacity="1" stop-color="rgb(68.345642%, 68.345642%, 68.345642%)" offset="0.84375"/><stop stop-opacity="1" stop-color="rgb(68.02063%, 68.02063%, 68.02063%)" offset="0.859375"/><stop stop-opacity="1" stop-color="rgb(67.694092%, 67.694092%, 67.694092%)" offset="0.875"/><stop stop-opacity="1" stop-color="rgb(67.367554%, 67.367554%, 67.367554%)" offset="0.890625"/><stop stop-opacity="1" stop-color="rgb(67.042542%, 67.042542%, 67.042542%)" offset="0.90625"/><stop stop-opacity="1" stop-color="rgb(66.716003%, 66.716003%, 66.716003%)" offset="0.921875"/><stop stop-opacity="1" stop-color="rgb(66.390991%, 66.390991%, 66.390991%)" offset="0.9375"/><stop stop-opacity="1" stop-color="rgb(66.064453%, 66.064453%, 66.064453%)" offset="0.953125"/><stop stop-opacity="1" stop-color="rgb(65.737915%, 65.737915%, 65.737915%)" offset="0.96875"/><stop stop-opacity="1" stop-color="rgb(65.412903%, 65.412903%, 65.412903%)" offset="0.984375"/><stop stop-opacity="1" stop-color="rgb(65.17334%, 65.17334%, 65.17334%)" offset="1"/></linearGradient></defs><g clip-path="url(#7cfafa80d9)"><path fill="#ffffff" d="M 24.441406 21.867188 L 24.441406 8.503906 L 33.765625 8.503906 C 33.765625 8.503906 33.890625 14.757812 31.507812 17.28125 C 29.125 19.800781 24.441406 21.867188 24.441406 21.867188 Z M 24.441406 21.867188 " fill-opacity="1" fill-rule="nonzero"/></g><g clip-path="url(#1aa3276b4f)"><g clip-path="url(#2aa76d3792)"><path fill="url(#8d6a571d43)" d="M 8.917969 9.007812 L 8.917969 33.339844 L 33.777344 33.339844 L 33.777344 9.007812 Z M 8.917969 9.007812 " fill-rule="nonzero"/></g></g><g clip-path="url(#9573f67999)"><path fill="#ffffff" d="M 33.769531 32.394531 L 33.769531 45.757812 L 24.441406 45.757812 C 24.441406 45.757812 24.316406 39.503906 26.703125 36.980469 C 29.085938 34.464844 33.769531 32.394531 33.769531 32.394531 Z M 33.769531 32.394531 " fill-opacity="1" fill-rule="nonzero"/></g><g clip-path="url(#69ad77a7af)"><g clip-path="url(#233af50c0c)"><path fill="url(#4ae12e7d2d)" d="M 49.15625 45.253906 L 49.15625 20.921875 L 24.433594 20.921875 L 24.433594 45.253906 Z M 49.15625 45.253906 " fill-rule="nonzero"/></g></g><g fill="#ffffff" fill-opacity="1"><g transform="translate(51.574264, 34.055401)"><g><path d="M 11.46875 0.21875 C 9.550781 0.21875 7.816406 -0.203125 6.265625 -1.046875 C 4.722656 -1.898438 3.507812 -3.070312 2.625 -4.5625 C 1.75 -6.0625 1.3125 -7.742188 1.3125 -9.609375 C 1.3125 -11.472656 1.75 -13.148438 2.625 -14.640625 C 3.507812 -16.140625 4.726562 -17.3125 6.28125 -18.15625 C 7.84375 -19.007812 9.582031 -19.4375 11.5 -19.4375 C 13 -19.4375 14.367188 -19.179688 15.609375 -18.671875 C 16.859375 -18.171875 17.925781 -17.425781 18.8125 -16.4375 L 17.015625 -14.71875 C 15.578125 -16.238281 13.773438 -17 11.609375 -17 C 10.179688 -17 8.890625 -16.675781 7.734375 -16.03125 C 6.585938 -15.394531 5.6875 -14.507812 5.03125 -13.375 C 4.382812 -12.25 4.0625 -10.992188 4.0625 -9.609375 C 4.0625 -8.210938 4.382812 -6.953125 5.03125 -5.828125 C 5.6875 -4.703125 6.585938 -3.816406 7.734375 -3.171875 C 8.890625 -2.535156 10.179688 -2.21875 11.609375 -2.21875 C 13.753906 -2.21875 15.554688 -2.988281 17.015625 -4.53125 L 18.8125 -2.796875 C 17.925781 -1.804688 16.859375 -1.054688 15.609375 -0.546875 C 14.359375 -0.0351562 12.976562 0.21875 11.46875 0.21875 Z M 11.46875 0.21875 "/></g></g></g><g fill="#ffffff" fill-opacity="1"><g transform="translate(73.262765, 34.055401)"><g><path d="M 10.84375 0.21875 C 8.28125 0.21875 6.285156 -0.507812 4.859375 -1.96875 C 3.429688 -3.4375 2.71875 -5.546875 2.71875 -8.296875 L 2.71875 -19.21875 L 5.46875 -19.21875 L 5.46875 -8.40625 C 5.46875 -4.28125 7.269531 -2.21875 10.875 -2.21875 C 12.625 -2.21875 13.96875 -2.722656 14.90625 -3.734375 C 15.84375 -4.753906 16.3125 -6.3125 16.3125 -8.40625 L 16.3125 -19.21875 L 18.96875 -19.21875 L 18.96875 -8.296875 C 18.96875 -5.523438 18.253906 -3.410156 16.828125 -1.953125 C 15.398438 -0.503906 13.40625 0.21875 10.84375 0.21875 Z M 10.84375 0.21875 "/></g></g></g><g fill="#ffffff" fill-opacity="1"><g transform="translate(96.818104, 34.055401)"><g><path d="M 2.875 -19.21875 L 5.625 -19.21875 L 5.625 0 L 2.875 0 Z M 2.875 -19.21875 "/></g></g></g><g fill="#ffffff" fill-opacity="1"><g transform="translate(107.168355, 34.055401)"><g><path d="M 2.875 -19.21875 L 10.984375 -19.21875 C 13.015625 -19.21875 14.816406 -18.8125 16.390625 -18 C 17.960938 -17.195312 19.179688 -16.066406 20.046875 -14.609375 C 20.921875 -13.160156 21.359375 -11.492188 21.359375 -9.609375 C 21.359375 -7.722656 20.921875 -6.050781 20.046875 -4.59375 C 19.179688 -3.144531 17.960938 -2.015625 16.390625 -1.203125 C 14.816406 -0.398438 13.015625 0 10.984375 0 L 2.875 0 Z M 10.8125 -2.390625 C 12.375 -2.390625 13.742188 -2.691406 14.921875 -3.296875 C 16.097656 -3.898438 17.003906 -4.742188 17.640625 -5.828125 C 18.285156 -6.921875 18.609375 -8.179688 18.609375 -9.609375 C 18.609375 -11.035156 18.285156 -12.289062 17.640625 -13.375 C 17.003906 -14.46875 16.097656 -15.316406 14.921875 -15.921875 C 13.742188 -16.523438 12.375 -16.828125 10.8125 -16.828125 L 5.625 -16.828125 L 5.625 -2.390625 Z M 10.8125 -2.390625 "/></g></g></g><g fill="#ffffff" fill-opacity="1"><g transform="translate(131.684554, 34.055401)"><g><path d="M 15.125 -4.796875 L 4.921875 -4.796875 L 2.796875 0 L -0.03125 0 L 8.671875 -19.21875 L 11.390625 -19.21875 L 20.125 0 L 17.234375 0 Z M 14.171875 -7 L 10.015625 -16.421875 L 5.875 -7 Z M 14.171875 -7 "/></g></g></g><g fill="#ffffff" fill-opacity="1"><g transform="translate(153.620143, 34.055401)"><g><path d="M 6.703125 -16.828125 L 0.109375 -16.828125 L 0.109375 -19.21875 L 16 -19.21875 L 16 -16.828125 L 9.421875 -16.828125 L 9.421875 0 L 6.703125 0 Z M 6.703125 -16.828125 "/></g></g></g><g fill="#ffffff" fill-opacity="1"><g transform="translate(171.574991, 34.055401)"><g><path d="M 16.203125 -9.71875 L 18.828125 -9.71875 L 18.828125 -2.21875 C 17.878906 -1.4375 16.769531 -0.832031 15.5 -0.40625 C 14.238281 0.0078125 12.925781 0.21875 11.5625 0.21875 C 9.613281 0.21875 7.863281 -0.203125 6.3125 -1.046875 C 4.757812 -1.898438 3.535156 -3.070312 2.640625 -4.5625 C 1.753906 -6.0625 1.3125 -7.742188 1.3125 -9.609375 C 1.3125 -11.472656 1.753906 -13.15625 2.640625 -14.65625 C 3.535156 -16.15625 4.765625 -17.328125 6.328125 -18.171875 C 7.890625 -19.015625 9.648438 -19.4375 11.609375 -19.4375 C 13.148438 -19.4375 14.546875 -19.179688 15.796875 -18.671875 C 17.054688 -18.171875 18.125 -17.4375 19 -16.46875 L 17.296875 -14.765625 C 15.753906 -16.253906 13.894531 -17 11.71875 -17 C 10.257812 -17 8.945312 -16.679688 7.78125 -16.046875 C 6.625 -15.410156 5.710938 -14.53125 5.046875 -13.40625 C 4.390625 -12.28125 4.0625 -11.015625 4.0625 -9.609375 C 4.0625 -8.210938 4.390625 -6.953125 5.046875 -5.828125 C 5.710938 -4.703125 6.625 -3.816406 7.78125 -3.171875 C 8.945312 -2.535156 10.25 -2.21875 11.6875 -2.21875 C 13.414062 -2.21875 14.921875 -2.628906 16.203125 -3.453125 Z M 16.203125 -9.71875 "/></g></g></g><g fill="#ffffff" fill-opacity="1"><g transform="translate(194.608707, 34.055401)"><g><path d="M 16.828125 -2.390625 L 16.828125 0 L 2.875 0 L 2.875 -19.21875 L 16.4375 -19.21875 L 16.4375 -16.828125 L 5.625 -16.828125 L 5.625 -10.921875 L 15.265625 -10.921875 L 15.265625 -8.59375 L 5.625 -8.59375 L 5.625 -2.390625 Z M 16.828125 -2.390625 "/></g></g></g><g fill="#ffffff" fill-opacity="1"><g transform="translate(5.995674, 56.528316)"><g><path d="M 5.421875 0 L 3.984375 -2.03125 C 3.804688 -2.019531 3.671875 -2.015625 3.578125 -2.015625 L 1.9375 -2.015625 L 1.9375 0 L 1 0 L 1 -6.609375 L 3.578125 -6.609375 C 4.429688 -6.609375 5.101562 -6.40625 5.59375 -6 C 6.082031 -5.59375 6.328125 -5.03125 6.328125 -4.3125 C 6.328125 -3.800781 6.203125 -3.363281 5.953125 -3 C 5.703125 -2.644531 5.34375 -2.382812 4.875 -2.21875 L 6.453125 0 Z M 3.546875 -2.8125 C 4.140625 -2.8125 4.59375 -2.941406 4.90625 -3.203125 C 5.226562 -3.460938 5.390625 -3.832031 5.390625 -4.3125 C 5.390625 -4.789062 5.226562 -5.15625 4.90625 -5.40625 C 4.59375 -5.664062 4.140625 -5.796875 3.546875 -5.796875 L 1.9375 -5.796875 L 1.9375 -2.8125 Z M 3.546875 -2.8125 "/></g></g></g><g fill="#ffffff" fill-opacity="1"><g transform="translate(15.327914, 56.528316)"><g><path d="M 5.796875 -0.828125 L 5.796875 0 L 1 0 L 1 -6.609375 L 5.65625 -6.609375 L 5.65625 -5.796875 L 1.9375 -5.796875 L 1.9375 -3.765625 L 5.25 -3.765625 L 5.25 -2.953125 L 1.9375 -2.953125 L 1.9375 -0.828125 Z M 5.796875 -0.828125 "/></g></g></g><g fill="#ffffff" fill-opacity="1"><g transform="translate(24.121294, 56.528316)"><g><path d="M 1.9375 -5.796875 L 1.9375 -3.484375 L 5.25 -3.484375 L 5.25 -2.671875 L 1.9375 -2.671875 L 1.9375 0 L 1 0 L 1 -6.609375 L 5.65625 -6.609375 L 5.65625 -5.796875 Z M 1.9375 -5.796875 "/></g></g></g><g fill="#ffffff" fill-opacity="1"><g transform="translate(32.583791, 56.528316)"><g><path d="M 5.796875 -0.828125 L 5.796875 0 L 1 0 L 1 -6.609375 L 5.65625 -6.609375 L 5.65625 -5.796875 L 1.9375 -5.796875 L 1.9375 -3.765625 L 5.25 -3.765625 L 5.25 -2.953125 L 1.9375 -2.953125 L 1.9375 -0.828125 Z M 5.796875 -0.828125 "/></g></g></g><g fill="#ffffff" fill-opacity="1"><g transform="translate(41.377172, 56.528316)"><g><path d="M 5.421875 0 L 3.984375 -2.03125 C 3.804688 -2.019531 3.671875 -2.015625 3.578125 -2.015625 L 1.9375 -2.015625 L 1.9375 0 L 1 0 L 1 -6.609375 L 3.578125 -6.609375 C 4.429688 -6.609375 5.101562 -6.40625 5.59375 -6 C 6.082031 -5.59375 6.328125 -5.03125 6.328125 -4.3125 C 6.328125 -3.800781 6.203125 -3.363281 5.953125 -3 C 5.703125 -2.644531 5.34375 -2.382812 4.875 -2.21875 L 6.453125 0 Z M 3.546875 -2.8125 C 4.140625 -2.8125 4.59375 -2.941406 4.90625 -3.203125 C 5.226562 -3.460938 5.390625 -3.832031 5.390625 -4.3125 C 5.390625 -4.789062 5.226562 -5.15625 4.90625 -5.40625 C 4.59375 -5.664062 4.140625 -5.796875 3.546875 -5.796875 L 1.9375 -5.796875 L 1.9375 -2.8125 Z M 3.546875 -2.8125 "/></g></g></g><g fill="#ffffff" fill-opacity="1"><g transform="translate(50.709412, 56.528316)"><g><path d="M 5.796875 -0.828125 L 5.796875 0 L 1 0 L 1 -6.609375 L 5.65625 -6.609375 L 5.65625 -5.796875 L 1.9375 -5.796875 L 1.9375 -3.765625 L 5.25 -3.765625 L 5.25 -2.953125 L 1.9375 -2.953125 L 1.9375 -0.828125 Z M 1.609375 -8.390625 L 2.765625 -8.390625 L 4.046875 -7.15625 L 3.1875 -7.15625 Z M 1.609375 -8.390625 "/></g></g></g><g fill="#ffffff" fill-opacity="1"><g transform="translate(59.502791, 56.528316)"><g><path d="M 6.6875 -6.609375 L 6.6875 0 L 5.90625 0 L 1.9375 -4.9375 L 1.9375 0 L 1 0 L 1 -6.609375 L 1.765625 -6.609375 L 5.734375 -1.6875 L 5.734375 -6.609375 Z M 6.6875 -6.609375 "/></g></g></g><g fill="#ffffff" fill-opacity="1"><g transform="translate(69.638602, 56.528316)"><g><path d="M 3.953125 0.078125 C 3.285156 0.078125 2.6875 -0.0664062 2.15625 -0.359375 C 1.625 -0.648438 1.207031 -1.050781 0.90625 -1.5625 C 0.601562 -2.082031 0.453125 -2.664062 0.453125 -3.3125 C 0.453125 -3.945312 0.601562 -4.519531 0.90625 -5.03125 C 1.207031 -5.550781 1.625 -5.957031 2.15625 -6.25 C 2.695312 -6.539062 3.296875 -6.6875 3.953125 -6.6875 C 4.472656 -6.6875 4.945312 -6.597656 5.375 -6.421875 C 5.800781 -6.253906 6.164062 -6 6.46875 -5.65625 L 5.859375 -5.0625 C 5.359375 -5.582031 4.738281 -5.84375 4 -5.84375 C 3.507812 -5.84375 3.0625 -5.734375 2.65625 -5.515625 C 2.257812 -5.296875 1.953125 -4.992188 1.734375 -4.609375 C 1.515625 -4.222656 1.40625 -3.789062 1.40625 -3.3125 C 1.40625 -2.832031 1.515625 -2.394531 1.734375 -2 C 1.953125 -1.613281 2.257812 -1.3125 2.65625 -1.09375 C 3.0625 -0.875 3.507812 -0.765625 4 -0.765625 C 4.738281 -0.765625 5.359375 -1.03125 5.859375 -1.5625 L 6.46875 -0.96875 C 6.164062 -0.625 5.796875 -0.363281 5.359375 -0.1875 C 4.929688 -0.0078125 4.460938 0.078125 3.953125 0.078125 Z M 3.953125 0.078125 "/></g></g></g><g fill="#ffffff" fill-opacity="1"><g transform="translate(78.933026, 56.528316)"><g><path d="M 1 -6.609375 L 1.9375 -6.609375 L 1.9375 0 L 1 0 Z M 1 -6.609375 "/></g></g></g><g fill="#ffffff" fill-opacity="1"><g transform="translate(84.323035, 56.528316)"><g><path d="M 5.796875 -0.828125 L 5.796875 0 L 1 0 L 1 -6.609375 L 5.65625 -6.609375 L 5.65625 -5.796875 L 1.9375 -5.796875 L 1.9375 -3.765625 L 5.25 -3.765625 L 5.25 -2.953125 L 1.9375 -2.953125 L 1.9375 -0.828125 Z M 5.796875 -0.828125 "/></g></g></g><g fill="#ffffff" fill-opacity="1"><g transform="translate(93.116416, 56.528316)"><g><path d="M 2.921875 0.078125 C 2.421875 0.078125 1.9375 0 1.46875 -0.15625 C 1.007812 -0.3125 0.648438 -0.507812 0.390625 -0.75 L 0.734375 -1.5 C 0.984375 -1.269531 1.304688 -1.082031 1.703125 -0.9375 C 2.097656 -0.800781 2.503906 -0.734375 2.921875 -0.734375 C 3.472656 -0.734375 3.882812 -0.820312 4.15625 -1 C 4.425781 -1.1875 4.5625 -1.4375 4.5625 -1.75 C 4.5625 -1.976562 4.484375 -2.160156 4.328125 -2.296875 C 4.179688 -2.441406 4 -2.550781 3.78125 -2.625 C 3.5625 -2.695312 3.253906 -2.785156 2.859375 -2.890625 C 2.367188 -3.003906 1.96875 -3.117188 1.65625 -3.234375 C 1.351562 -3.359375 1.09375 -3.546875 0.875 -3.796875 C 0.65625 -4.046875 0.546875 -4.378906 0.546875 -4.796875 C 0.546875 -5.148438 0.640625 -5.46875 0.828125 -5.75 C 1.015625 -6.039062 1.296875 -6.269531 1.671875 -6.4375 C 2.046875 -6.601562 2.515625 -6.6875 3.078125 -6.6875 C 3.472656 -6.6875 3.859375 -6.632812 4.234375 -6.53125 C 4.609375 -6.4375 4.929688 -6.296875 5.203125 -6.109375 L 4.890625 -5.34375 C 4.617188 -5.519531 4.320312 -5.65625 4 -5.75 C 3.6875 -5.84375 3.378906 -5.890625 3.078125 -5.890625 C 2.546875 -5.890625 2.144531 -5.789062 1.875 -5.59375 C 1.601562 -5.394531 1.46875 -5.144531 1.46875 -4.84375 C 1.46875 -4.613281 1.539062 -4.425781 1.6875 -4.28125 C 1.84375 -4.144531 2.03125 -4.035156 2.25 -3.953125 C 2.476562 -3.878906 2.785156 -3.796875 3.171875 -3.703125 C 3.671875 -3.585938 4.070312 -3.46875 4.375 -3.34375 C 4.675781 -3.226562 4.9375 -3.046875 5.15625 -2.796875 C 5.375 -2.546875 5.484375 -2.21875 5.484375 -1.8125 C 5.484375 -1.457031 5.390625 -1.132812 5.203125 -0.84375 C 5.015625 -0.5625 4.726562 -0.335938 4.34375 -0.171875 C 3.957031 -0.00390625 3.484375 0.078125 2.921875 0.078125 Z M 2.921875 0.078125 "/></g></g></g><g fill="#ffffff" fill-opacity="1"><g transform="translate(101.446558, 56.528316)"><g/></g></g><g fill="#ffffff" fill-opacity="1"><g transform="translate(106.448954, 56.528316)"><g><path d="M 5.4375 -3.4375 C 5.820312 -3.320312 6.125 -3.125 6.34375 -2.84375 C 6.570312 -2.5625 6.6875 -2.207031 6.6875 -1.78125 C 6.6875 -1.207031 6.46875 -0.765625 6.03125 -0.453125 C 5.601562 -0.148438 4.976562 0 4.15625 0 L 1 0 L 1 -6.609375 L 3.953125 -6.609375 C 4.710938 -6.609375 5.296875 -6.457031 5.703125 -6.15625 C 6.117188 -5.851562 6.328125 -5.4375 6.328125 -4.90625 C 6.328125 -4.5625 6.242188 -4.257812 6.078125 -4 C 5.921875 -3.75 5.707031 -3.5625 5.4375 -3.4375 Z M 1.9375 -5.84375 L 1.9375 -3.734375 L 3.875 -3.734375 C 4.363281 -3.734375 4.738281 -3.820312 5 -4 C 5.257812 -4.175781 5.390625 -4.441406 5.390625 -4.796875 C 5.390625 -5.140625 5.257812 -5.398438 5 -5.578125 C 4.738281 -5.753906 4.363281 -5.84375 3.875 -5.84375 Z M 4.109375 -0.765625 C 4.648438 -0.765625 5.054688 -0.851562 5.328125 -1.03125 C 5.597656 -1.207031 5.734375 -1.484375 5.734375 -1.859375 C 5.734375 -2.597656 5.191406 -2.96875 4.109375 -2.96875 L 1.9375 -2.96875 L 1.9375 -0.765625 Z M 4.109375 -0.765625 "/></g></g></g><g fill="#ffffff" fill-opacity="1"><g transform="translate(116.064807, 56.528316)"><g><path d="M 1 -6.609375 L 1.9375 -6.609375 L 1.9375 0 L 1 0 Z M 1 -6.609375 "/></g></g></g><g fill="#ffffff" fill-opacity="1"><g transform="translate(121.45481, 56.528316)"><g><path d="M 5.4375 -3.4375 C 5.820312 -3.320312 6.125 -3.125 6.34375 -2.84375 C 6.570312 -2.5625 6.6875 -2.207031 6.6875 -1.78125 C 6.6875 -1.207031 6.46875 -0.765625 6.03125 -0.453125 C 5.601562 -0.148438 4.976562 0 4.15625 0 L 1 0 L 1 -6.609375 L 3.953125 -6.609375 C 4.710938 -6.609375 5.296875 -6.457031 5.703125 -6.15625 C 6.117188 -5.851562 6.328125 -5.4375 6.328125 -4.90625 C 6.328125 -4.5625 6.242188 -4.257812 6.078125 -4 C 5.921875 -3.75 5.707031 -3.5625 5.4375 -3.4375 Z M 1.9375 -5.84375 L 1.9375 -3.734375 L 3.875 -3.734375 C 4.363281 -3.734375 4.738281 -3.820312 5 -4 C 5.257812 -4.175781 5.390625 -4.441406 5.390625 -4.796875 C 5.390625 -5.140625 5.257812 -5.398438 5 -5.578125 C 4.738281 -5.753906 4.363281 -5.84375 3.875 -5.84375 Z M 4.109375 -0.765625 C 4.648438 -0.765625 5.054688 -0.851562 5.328125 -1.03125 C 5.597656 -1.207031 5.734375 -1.484375 5.734375 -1.859375 C 5.734375 -2.597656 5.191406 -2.96875 4.109375 -2.96875 L 1.9375 -2.96875 L 1.9375 -0.765625 Z M 4.109375 -0.765625 "/></g></g></g><g fill="#ffffff" fill-opacity="1"><g transform="translate(131.070664, 56.528316)"><g><path d="M 1 -6.609375 L 1.9375 -6.609375 L 1.9375 -0.828125 L 5.515625 -0.828125 L 5.515625 0 L 1 0 Z M 1 -6.609375 "/></g></g></g><g fill="#ffffff" fill-opacity="1"><g transform="translate(139.145549, 56.528316)"><g><path d="M 1 -6.609375 L 1.9375 -6.609375 L 1.9375 0 L 1 0 Z M 1 -6.609375 "/></g></g></g><g fill="#ffffff" fill-opacity="1"><g transform="translate(144.535552, 56.528316)"><g><path d="M 3.984375 0.078125 C 3.316406 0.078125 2.710938 -0.0664062 2.171875 -0.359375 C 1.640625 -0.648438 1.21875 -1.054688 0.90625 -1.578125 C 0.601562 -2.097656 0.453125 -2.675781 0.453125 -3.3125 C 0.453125 -3.945312 0.601562 -4.519531 0.90625 -5.03125 C 1.21875 -5.550781 1.640625 -5.957031 2.171875 -6.25 C 2.710938 -6.539062 3.316406 -6.6875 3.984375 -6.6875 C 4.640625 -6.6875 5.234375 -6.539062 5.765625 -6.25 C 6.304688 -5.957031 6.726562 -5.550781 7.03125 -5.03125 C 7.332031 -4.519531 7.484375 -3.945312 7.484375 -3.3125 C 7.484375 -2.664062 7.332031 -2.082031 7.03125 -1.5625 C 6.726562 -1.050781 6.304688 -0.648438 5.765625 -0.359375 C 5.234375 -0.0664062 4.640625 0.078125 3.984375 0.078125 Z M 3.984375 -0.765625 C 4.460938 -0.765625 4.894531 -0.875 5.28125 -1.09375 C 5.675781 -1.3125 5.984375 -1.613281 6.203125 -2 C 6.429688 -2.394531 6.546875 -2.832031 6.546875 -3.3125 C 6.546875 -3.789062 6.429688 -4.222656 6.203125 -4.609375 C 5.984375 -4.992188 5.675781 -5.296875 5.28125 -5.515625 C 4.894531 -5.734375 4.460938 -5.84375 3.984375 -5.84375 C 3.492188 -5.84375 3.050781 -5.734375 2.65625 -5.515625 C 2.257812 -5.296875 1.953125 -4.992188 1.734375 -4.609375 C 1.515625 -4.222656 1.40625 -3.789062 1.40625 -3.3125 C 1.40625 -2.832031 1.515625 -2.394531 1.734375 -2 C 1.953125 -1.613281 2.257812 -1.3125 2.65625 -1.09375 C 3.050781 -0.875 3.492188 -0.765625 3.984375 -0.765625 Z M 3.984375 -0.765625 "/></g></g></g><g fill="#ffffff" fill-opacity="1"><g transform="translate(154.936068, 56.528316)"><g><path d="M 5.578125 -3.34375 L 6.484375 -3.34375 L 6.484375 -0.765625 C 6.160156 -0.492188 5.78125 -0.285156 5.34375 -0.140625 C 4.90625 0.00390625 4.453125 0.078125 3.984375 0.078125 C 3.316406 0.078125 2.710938 -0.0664062 2.171875 -0.359375 C 1.640625 -0.648438 1.21875 -1.050781 0.90625 -1.5625 C 0.601562 -2.082031 0.453125 -2.664062 0.453125 -3.3125 C 0.453125 -3.945312 0.601562 -4.523438 0.90625 -5.046875 C 1.21875 -5.566406 1.640625 -5.96875 2.171875 -6.25 C 2.710938 -6.539062 3.320312 -6.6875 4 -6.6875 C 4.53125 -6.6875 5.007812 -6.597656 5.4375 -6.421875 C 5.875 -6.253906 6.242188 -6.003906 6.546875 -5.671875 L 5.953125 -5.078125 C 5.421875 -5.585938 4.78125 -5.84375 4.03125 -5.84375 C 3.53125 -5.84375 3.078125 -5.734375 2.671875 -5.515625 C 2.273438 -5.304688 1.960938 -5.003906 1.734375 -4.609375 C 1.515625 -4.222656 1.40625 -3.789062 1.40625 -3.3125 C 1.40625 -2.832031 1.515625 -2.394531 1.734375 -2 C 1.960938 -1.613281 2.273438 -1.3125 2.671875 -1.09375 C 3.078125 -0.875 3.53125 -0.765625 4.03125 -0.765625 C 4.625 -0.765625 5.140625 -0.90625 5.578125 -1.1875 Z M 5.578125 -3.34375 "/></g></g></g><g fill="#ffffff" fill-opacity="1"><g transform="translate(164.693726, 56.528316)"><g><path d="M 5.421875 0 L 3.984375 -2.03125 C 3.804688 -2.019531 3.671875 -2.015625 3.578125 -2.015625 L 1.9375 -2.015625 L 1.9375 0 L 1 0 L 1 -6.609375 L 3.578125 -6.609375 C 4.429688 -6.609375 5.101562 -6.40625 5.59375 -6 C 6.082031 -5.59375 6.328125 -5.03125 6.328125 -4.3125 C 6.328125 -3.800781 6.203125 -3.363281 5.953125 -3 C 5.703125 -2.644531 5.34375 -2.382812 4.875 -2.21875 L 6.453125 0 Z M 3.546875 -2.8125 C 4.140625 -2.8125 4.59375 -2.941406 4.90625 -3.203125 C 5.226562 -3.460938 5.390625 -3.832031 5.390625 -4.3125 C 5.390625 -4.789062 5.226562 -5.15625 4.90625 -5.40625 C 4.59375 -5.664062 4.140625 -5.796875 3.546875 -5.796875 L 1.9375 -5.796875 L 1.9375 -2.8125 Z M 3.546875 -2.8125 "/></g></g></g><g fill="#ffffff" fill-opacity="1"><g transform="translate(174.025961, 56.528316)"><g><path d="M 5.203125 -1.65625 L 1.6875 -1.65625 L 0.96875 0 L -0.015625 0 L 2.984375 -6.609375 L 3.921875 -6.609375 L 6.921875 0 L 5.9375 0 Z M 4.875 -2.40625 L 3.453125 -5.65625 L 2.015625 -2.40625 Z M 1.734375 -8.390625 L 2.890625 -8.390625 L 4.171875 -7.15625 L 3.3125 -7.15625 Z M 1.734375 -8.390625 "/></g></g></g><g fill="#ffffff" fill-opacity="1"><g transform="translate(183.405471, 56.528316)"><g><path d="M 1.9375 -5.796875 L 1.9375 -3.484375 L 5.25 -3.484375 L 5.25 -2.671875 L 1.9375 -2.671875 L 1.9375 0 L 1 0 L 1 -6.609375 L 5.65625 -6.609375 L 5.65625 -5.796875 Z M 1.9375 -5.796875 "/></g></g></g><g fill="#ffffff" fill-opacity="1"><g transform="translate(191.867963, 56.528316)"><g><path d="M 1 -6.609375 L 1.9375 -6.609375 L 1.9375 0 L 1 0 Z M 1 -6.609375 "/></g></g></g><g fill="#ffffff" fill-opacity="1"><g transform="translate(197.257977, 56.528316)"><g><path d="M 7.8125 0.609375 C 7.59375 0.859375 7.34375 1.046875 7.0625 1.171875 C 6.78125 1.304688 6.472656 1.375 6.140625 1.375 C 5.722656 1.375 5.332031 1.273438 4.96875 1.078125 C 4.613281 0.878906 4.203125 0.539062 3.734375 0.0625 C 3.109375 0.03125 2.546875 -0.132812 2.046875 -0.4375 C 1.546875 -0.738281 1.15625 -1.140625 0.875 -1.640625 C 0.59375 -2.140625 0.453125 -2.695312 0.453125 -3.3125 C 0.453125 -3.945312 0.601562 -4.519531 0.90625 -5.03125 C 1.21875 -5.550781 1.640625 -5.957031 2.171875 -6.25 C 2.710938 -6.539062 3.316406 -6.6875 3.984375 -6.6875 C 4.640625 -6.6875 5.234375 -6.539062 5.765625 -6.25 C 6.304688 -5.957031 6.726562 -5.550781 7.03125 -5.03125 C 7.332031 -4.519531 7.484375 -3.945312 7.484375 -3.3125 C 7.484375 -2.769531 7.375 -2.269531 7.15625 -1.8125 C 6.9375 -1.363281 6.628906 -0.984375 6.234375 -0.671875 C 5.847656 -0.359375 5.398438 -0.144531 4.890625 -0.03125 C 5.109375 0.207031 5.316406 0.378906 5.515625 0.484375 C 5.722656 0.585938 5.9375 0.640625 6.15625 0.640625 C 6.625 0.640625 7.023438 0.445312 7.359375 0.0625 Z M 1.40625 -3.3125 C 1.40625 -2.832031 1.515625 -2.394531 1.734375 -2 C 1.953125 -1.613281 2.257812 -1.3125 2.65625 -1.09375 C 3.050781 -0.875 3.492188 -0.765625 3.984375 -0.765625 C 4.460938 -0.765625 4.894531 -0.875 5.28125 -1.09375 C 5.675781 -1.3125 5.984375 -1.613281 6.203125 -2 C 6.429688 -2.394531 6.546875 -2.832031 6.546875 -3.3125 C 6.546875 -3.789062 6.429688 -4.222656 6.203125 -4.609375 C 5.984375 -4.992188 5.675781 -5.296875 5.28125 -5.515625 C 4.894531 -5.734375 4.460938 -5.84375 3.984375 -5.84375 C 3.492188 -5.84375 3.050781 -5.734375 2.65625 -5.515625 C 2.257812 -5.296875 1.953125 -4.992188 1.734375 -4.609375 C 1.515625 -4.222656 1.40625 -3.789062 1.40625 -3.3125 Z M 1.40625 -3.3125 "/></g></g></g><g fill="#ffffff" fill-opacity="1"><g transform="translate(207.658505, 56.528316)"><g><path d="M 3.734375 0.078125 C 2.847656 0.078125 2.160156 -0.171875 1.671875 -0.671875 C 1.179688 -1.179688 0.9375 -1.910156 0.9375 -2.859375 L 0.9375 -6.609375 L 1.875 -6.609375 L 1.875 -2.890625 C 1.875 -1.472656 2.5 -0.765625 3.75 -0.765625 C 4.351562 -0.765625 4.8125 -0.9375 5.125 -1.28125 C 5.445312 -1.632812 5.609375 -2.171875 5.609375 -2.890625 L 5.609375 -6.609375 L 6.53125 -6.609375 L 6.53125 -2.859375 C 6.53125 -1.898438 6.285156 -1.171875 5.796875 -0.671875 C 5.304688 -0.171875 4.617188 0.078125 3.734375 0.078125 Z M 3.734375 0.078125 "/></g></g></g><g fill="#ffffff" fill-opacity="1"><g transform="translate(217.595783, 56.528316)"><g><path d="M 5.796875 -0.828125 L 5.796875 0 L 1 0 L 1 -6.609375 L 5.65625 -6.609375 L 5.65625 -5.796875 L 1.9375 -5.796875 L 1.9375 -3.765625 L 5.25 -3.765625 L 5.25 -2.953125 L 1.9375 -2.953125 L 1.9375 -0.828125 Z M 5.796875 -0.828125 "/></g></g></g><g fill="#ffffff" fill-opacity="1"><g transform="translate(226.38917, 56.528316)"><g><path d="M 2.921875 0.078125 C 2.421875 0.078125 1.9375 0 1.46875 -0.15625 C 1.007812 -0.3125 0.648438 -0.507812 0.390625 -0.75 L 0.734375 -1.5 C 0.984375 -1.269531 1.304688 -1.082031 1.703125 -0.9375 C 2.097656 -0.800781 2.503906 -0.734375 2.921875 -0.734375 C 3.472656 -0.734375 3.882812 -0.820312 4.15625 -1 C 4.425781 -1.1875 4.5625 -1.4375 4.5625 -1.75 C 4.5625 -1.976562 4.484375 -2.160156 4.328125 -2.296875 C 4.179688 -2.441406 4 -2.550781 3.78125 -2.625 C 3.5625 -2.695312 3.253906 -2.785156 2.859375 -2.890625 C 2.367188 -3.003906 1.96875 -3.117188 1.65625 -3.234375 C 1.351562 -3.359375 1.09375 -3.546875 0.875 -3.796875 C 0.65625 -4.046875 0.546875 -4.378906 0.546875 -4.796875 C 0.546875 -5.148438 0.640625 -5.46875 0.828125 -5.75 C 1.015625 -6.039062 1.296875 -6.269531 1.671875 -6.4375 C 2.046875 -6.601562 2.515625 -6.6875 3.078125 -6.6875 C 3.472656 -6.6875 3.859375 -6.632812 4.234375 -6.53125 C 4.609375 -6.4375 4.929688 -6.296875 5.203125 -6.109375 L 4.890625 -5.34375 C 4.617188 -5.519531 4.320312 -5.65625 4 -5.75 C 3.6875 -5.84375 3.378906 -5.890625 3.078125 -5.890625 C 2.546875 -5.890625 2.144531 -5.789062 1.875 -5.59375 C 1.601562 -5.394531 1.46875 -5.144531 1.46875 -4.84375 C 1.46875 -4.613281 1.539062 -4.425781 1.6875 -4.28125 C 1.84375 -4.144531 2.03125 -4.035156 2.25 -3.953125 C 2.476562 -3.878906 2.785156 -3.796875 3.171875 -3.703125 C 3.671875 -3.585938 4.070312 -3.46875 4.375 -3.34375 C 4.675781 -3.226562 4.9375 -3.046875 5.15625 -2.796875 C 5.375 -2.546875 5.484375 -2.21875 5.484375 -1.8125 C 5.484375 -1.457031 5.390625 -1.132812 5.203125 -0.84375 C 5.015625 -0.5625 4.726562 -0.335938 4.34375 -0.171875 C 3.957031 -0.00390625 3.484375 0.078125 2.921875 0.078125 Z M 2.921875 0.078125 "/></g></g></g><g fill="#ffffff" fill-opacity="1"><g transform="translate(234.727246, 56.528316)"><g/></g></g><g fill="#ffffff" fill-opacity="1"><g transform="translate(65.151996, 69.940653)"><g><path d="M 5.796875 -0.828125 L 5.796875 0 L 1 0 L 1 -6.609375 L 5.65625 -6.609375 L 5.65625 -5.796875 L 1.9375 -5.796875 L 1.9375 -3.765625 L 5.25 -3.765625 L 5.25 -2.953125 L 1.9375 -2.953125 L 1.9375 -0.828125 Z M 5.796875 -0.828125 "/></g></g></g><g fill="#ffffff" fill-opacity="1"><g transform="translate(73.945377, 69.940653)"><g><path d="M 6.6875 -6.609375 L 6.6875 0 L 5.90625 0 L 1.9375 -4.9375 L 1.9375 0 L 1 0 L 1 -6.609375 L 1.765625 -6.609375 L 5.734375 -1.6875 L 5.734375 -6.609375 Z M 6.6875 -6.609375 "/></g></g></g><g fill="#ffffff" fill-opacity="1"><g transform="translate(84.081187, 69.940653)"><g/></g></g><g fill="#ffffff" fill-opacity="1"><g transform="translate(89.083587, 69.940653)"><g><path d="M 1 -6.609375 L 1.9375 -6.609375 L 1.9375 0 L 1 0 Z M 1 -6.609375 "/></g></g></g><g fill="#ffffff" fill-opacity="1"><g transform="translate(94.473595, 69.940653)"><g><path d="M 6.6875 -6.609375 L 6.6875 0 L 5.90625 0 L 1.9375 -4.9375 L 1.9375 0 L 1 0 L 1 -6.609375 L 1.765625 -6.609375 L 5.734375 -1.6875 L 5.734375 -6.609375 Z M 6.6875 -6.609375 "/></g></g></g><g fill="#ffffff" fill-opacity="1"><g transform="translate(104.609406, 69.940653)"><g><path d="M 1.9375 -5.796875 L 1.9375 -3.484375 L 5.25 -3.484375 L 5.25 -2.671875 L 1.9375 -2.671875 L 1.9375 0 L 1 0 L 1 -6.609375 L 5.65625 -6.609375 L 5.65625 -5.796875 Z M 1.9375 -5.796875 "/></g></g></g><g fill="#ffffff" fill-opacity="1"><g transform="translate(113.071901, 69.940653)"><g><path d="M 5.796875 -0.828125 L 5.796875 0 L 1 0 L 1 -6.609375 L 5.65625 -6.609375 L 5.65625 -5.796875 L 1.9375 -5.796875 L 1.9375 -3.765625 L 5.25 -3.765625 L 5.25 -2.953125 L 1.9375 -2.953125 L 1.9375 -0.828125 Z M 5.796875 -0.828125 "/></g></g></g><g fill="#ffffff" fill-opacity="1"><g transform="translate(121.865282, 69.940653)"><g><path d="M 5.421875 0 L 3.984375 -2.03125 C 3.804688 -2.019531 3.671875 -2.015625 3.578125 -2.015625 L 1.9375 -2.015625 L 1.9375 0 L 1 0 L 1 -6.609375 L 3.578125 -6.609375 C 4.429688 -6.609375 5.101562 -6.40625 5.59375 -6 C 6.082031 -5.59375 6.328125 -5.03125 6.328125 -4.3125 C 6.328125 -3.800781 6.203125 -3.363281 5.953125 -3 C 5.703125 -2.644531 5.34375 -2.382812 4.875 -2.21875 L 6.453125 0 Z M 3.546875 -2.8125 C 4.140625 -2.8125 4.59375 -2.941406 4.90625 -3.203125 C 5.226562 -3.460938 5.390625 -3.832031 5.390625 -4.3125 C 5.390625 -4.789062 5.226562 -5.15625 4.90625 -5.40625 C 4.59375 -5.664062 4.140625 -5.796875 3.546875 -5.796875 L 1.9375 -5.796875 L 1.9375 -2.8125 Z M 3.546875 -2.8125 "/></g></g></g><g fill="#ffffff" fill-opacity="1"><g transform="translate(131.197523, 69.940653)"><g><path d="M 7.125 0 L 7.125 -4.828125 L 4.71875 -0.796875 L 4.296875 -0.796875 L 1.90625 -4.796875 L 1.90625 0 L 1 0 L 1 -6.609375 L 1.765625 -6.609375 L 4.53125 -1.96875 L 7.25 -6.609375 L 8.03125 -6.609375 L 8.03125 0 Z M 7.125 0 "/></g></g></g><g fill="#ffffff" fill-opacity="1"><g transform="translate(142.685234, 69.940653)"><g><path d="M 5.796875 -0.828125 L 5.796875 0 L 1 0 L 1 -6.609375 L 5.65625 -6.609375 L 5.65625 -5.796875 L 1.9375 -5.796875 L 1.9375 -3.765625 L 5.25 -3.765625 L 5.25 -2.953125 L 1.9375 -2.953125 L 1.9375 -0.828125 Z M 5.796875 -0.828125 "/></g></g></g><g fill="#ffffff" fill-opacity="1"><g transform="translate(151.478615, 69.940653)"><g><path d="M 5.421875 0 L 3.984375 -2.03125 C 3.804688 -2.019531 3.671875 -2.015625 3.578125 -2.015625 L 1.9375 -2.015625 L 1.9375 0 L 1 0 L 1 -6.609375 L 3.578125 -6.609375 C 4.429688 -6.609375 5.101562 -6.40625 5.59375 -6 C 6.082031 -5.59375 6.328125 -5.03125 6.328125 -4.3125 C 6.328125 -3.800781 6.203125 -3.363281 5.953125 -3 C 5.703125 -2.644531 5.34375 -2.382812 4.875 -2.21875 L 6.453125 0 Z M 3.546875 -2.8125 C 4.140625 -2.8125 4.59375 -2.941406 4.90625 -3.203125 C 5.226562 -3.460938 5.390625 -3.832031 5.390625 -4.3125 C 5.390625 -4.789062 5.226562 -5.15625 4.90625 -5.40625 C 4.59375 -5.664062 4.140625 -5.796875 3.546875 -5.796875 L 1.9375 -5.796875 L 1.9375 -2.8125 Z M 3.546875 -2.8125 "/></g></g></g><g fill="#ffffff" fill-opacity="1"><g transform="translate(160.810856, 69.940653)"><g><path d="M 1 -6.609375 L 1.9375 -6.609375 L 1.9375 0 L 1 0 Z M 1 -6.609375 "/></g></g></g><g fill="#ffffff" fill-opacity="1"><g transform="translate(166.200859, 69.940653)"><g><path d="M 5.203125 -1.65625 L 1.6875 -1.65625 L 0.96875 0 L -0.015625 0 L 2.984375 -6.609375 L 3.921875 -6.609375 L 6.921875 0 L 5.9375 0 Z M 4.875 -2.40625 L 3.453125 -5.65625 L 2.015625 -2.40625 Z M 4.875 -2.40625 "/></g></g></g></svg>