<svg xmlns="http://www.w3.org/2000/svg" xmlns:xlink="http://www.w3.org/1999/xlink" width="325" zoomAndPan="magnify" viewBox="0 0 243.75 76.499998" height="102" preserveAspectRatio="xMidYMid meet" version="1.0"><defs><g/><clipPath id="816ad86b78"><path d="M 24 8.363281 L 34 8.363281 L 34 22 L 24 22 Z M 24 8.363281 " clip-rule="nonzero"/></clipPath><clipPath id="7611ab9687"><path d="M 8.917969 8.363281 L 34 8.363281 L 34 34 L 8.917969 34 Z M 8.917969 8.363281 " clip-rule="nonzero"/></clipPath><clipPath id="440322a3be"><path d="M 33.765625 8.882812 C 33.777344 10.535156 33.582031 15.996094 30.898438 21.328125 C 30.054688 23.003906 28.964844 24.671875 27.550781 26.199219 C 23.894531 30.164062 18.097656 33.214844 8.917969 33.214844 L 8.917969 23.902344 C 15.6875 23.902344 20.617188 22.863281 24.207031 21.328125 C 25.484375 20.777344 26.59375 20.167969 27.554688 19.515625 C 33.203125 15.6875 33.742188 10.5 33.765625 8.882812 Z M 33.765625 8.882812 " clip-rule="nonzero"/></clipPath><linearGradient x1="-0.00000467381" gradientTransform="matrix(0.103318, 0, 0, 0.103318, 8.918374, 8.379823)" y1="122.636002" x2="240.600008" gradientUnits="userSpaceOnUse" y2="122.636002" id="182bba6a52"><stop stop-opacity="1" stop-color="rgb(100%, 34.098816%, 34.098816%)" offset="0"/><stop stop-opacity="1" stop-color="rgb(100%, 34.098816%, 34.098816%)" offset="0.03125"/><stop stop-opacity="1" stop-color="rgb(99.815369%, 33.94165%, 33.94165%)" offset="0.046875"/><stop stop-opacity="1" stop-color="rgb(99.465942%, 33.644104%, 33.644104%)" offset="0.0546875"/><stop stop-opacity="1" stop-color="rgb(99.137878%, 33.364868%, 33.364868%)" offset="0.0625"/><stop stop-opacity="1" stop-color="rgb(98.81134%, 33.085632%, 33.085632%)" offset="0.0703125"/><stop stop-opacity="1" stop-color="rgb(98.483276%, 32.806396%, 32.806396%)" offset="0.078125"/><stop stop-opacity="1" stop-color="rgb(98.155212%, 32.527161%, 32.527161%)" offset="0.0859375"/><stop stop-opacity="1" stop-color="rgb(97.827148%, 32.247925%, 32.247925%)" offset="0.09375"/><stop stop-opacity="1" stop-color="rgb(97.499084%, 31.968689%, 31.968689%)" offset="0.101562"/><stop stop-opacity="1" stop-color="rgb(97.172546%, 31.689453%, 31.689453%)" offset="0.109375"/><stop stop-opacity="1" stop-color="rgb(96.844482%, 31.410217%, 31.410217%)" offset="0.117187"/><stop stop-opacity="1" stop-color="rgb(96.516418%, 31.129456%, 31.129456%)" offset="0.125"/><stop stop-opacity="1" stop-color="rgb(96.188354%, 30.85022%, 30.85022%)" offset="0.132812"/><stop stop-opacity="1" stop-color="rgb(95.861816%, 30.570984%, 30.570984%)" offset="0.140625"/><stop stop-opacity="1" stop-color="rgb(95.533752%, 30.291748%, 30.291748%)" offset="0.148438"/><stop stop-opacity="1" stop-color="rgb(95.205688%, 30.012512%, 30.012512%)" offset="0.15625"/><stop stop-opacity="1" stop-color="rgb(94.877625%, 29.733276%, 29.733276%)" offset="0.164062"/><stop stop-opacity="1" stop-color="rgb(94.551086%, 29.454041%, 29.454041%)" offset="0.171875"/><stop stop-opacity="1" stop-color="rgb(94.223022%, 29.174805%, 29.174805%)" offset="0.179688"/><stop stop-opacity="1" stop-color="rgb(93.894958%, 28.895569%, 28.895569%)" offset="0.1875"/><stop stop-opacity="1" stop-color="rgb(93.566895%, 28.616333%, 28.616333%)" offset="0.195312"/><stop stop-opacity="1" stop-color="rgb(93.238831%, 28.337097%, 28.337097%)" offset="0.203125"/><stop stop-opacity="1" stop-color="rgb(92.912292%, 28.056335%, 28.056335%)" offset="0.210938"/><stop stop-opacity="1" stop-color="rgb(92.584229%, 27.7771%, 27.7771%)" offset="0.21875"/><stop stop-opacity="1" stop-color="rgb(92.256165%, 27.497864%, 27.497864%)" offset="0.226562"/><stop stop-opacity="1" stop-color="rgb(91.928101%, 27.218628%, 27.218628%)" offset="0.234375"/><stop stop-opacity="1" stop-color="rgb(91.601562%, 26.939392%, 26.939392%)" offset="0.242187"/><stop stop-opacity="1" stop-color="rgb(91.273499%, 26.660156%, 26.660156%)" offset="0.25"/><stop stop-opacity="1" stop-color="rgb(90.945435%, 26.38092%, 26.38092%)" offset="0.257812"/><stop stop-opacity="1" stop-color="rgb(90.617371%, 26.101685%, 26.101685%)" offset="0.265625"/><stop stop-opacity="1" stop-color="rgb(90.290833%, 25.822449%, 25.822449%)" offset="0.273437"/><stop stop-opacity="1" stop-color="rgb(89.962769%, 25.543213%, 25.543213%)" offset="0.28125"/><stop stop-opacity="1" stop-color="rgb(89.634705%, 25.263977%, 25.263977%)" offset="0.289062"/><stop stop-opacity="1" stop-color="rgb(89.306641%, 24.983215%, 24.983215%)" offset="0.296875"/><stop stop-opacity="1" stop-color="rgb(88.978577%, 24.703979%, 24.703979%)" offset="0.304687"/><stop stop-opacity="1" stop-color="rgb(88.652039%, 24.424744%, 24.424744%)" offset="0.3125"/><stop stop-opacity="1" stop-color="rgb(88.323975%, 24.145508%, 24.145508%)" offset="0.320312"/><stop stop-opacity="1" stop-color="rgb(87.995911%, 23.866272%, 23.866272%)" offset="0.328125"/><stop stop-opacity="1" stop-color="rgb(87.667847%, 23.587036%, 23.587036%)" offset="0.335938"/><stop stop-opacity="1" stop-color="rgb(87.341309%, 23.3078%, 23.3078%)" offset="0.34375"/><stop stop-opacity="1" stop-color="rgb(87.013245%, 23.028564%, 23.028564%)" offset="0.351562"/><stop stop-opacity="1" stop-color="rgb(86.685181%, 22.749329%, 22.749329%)" offset="0.359375"/><stop stop-opacity="1" stop-color="rgb(86.357117%, 22.470093%, 22.470093%)" offset="0.367188"/><stop stop-opacity="1" stop-color="rgb(86.029053%, 22.190857%, 22.190857%)" offset="0.375"/><stop stop-opacity="1" stop-color="rgb(85.702515%, 21.910095%, 21.910095%)" offset="0.382812"/><stop stop-opacity="1" stop-color="rgb(85.374451%, 21.630859%, 21.630859%)" offset="0.390625"/><stop stop-opacity="1" stop-color="rgb(85.046387%, 21.351624%, 21.351624%)" offset="0.398438"/><stop stop-opacity="1" stop-color="rgb(84.718323%, 21.072388%, 21.072388%)" offset="0.40625"/><stop stop-opacity="1" stop-color="rgb(84.391785%, 20.793152%, 20.793152%)" offset="0.414062"/><stop stop-opacity="1" stop-color="rgb(84.063721%, 20.513916%, 20.513916%)" offset="0.421875"/><stop stop-opacity="1" stop-color="rgb(83.735657%, 20.23468%, 20.23468%)" offset="0.429688"/><stop stop-opacity="1" stop-color="rgb(83.407593%, 19.955444%, 19.955444%)" offset="0.4375"/><stop stop-opacity="1" stop-color="rgb(83.081055%, 19.676208%, 19.676208%)" offset="0.445312"/><stop stop-opacity="1" stop-color="rgb(82.752991%, 19.396973%, 19.396973%)" offset="0.453125"/><stop stop-opacity="1" stop-color="rgb(82.424927%, 19.117737%, 19.117737%)" offset="0.460937"/><stop stop-opacity="1" stop-color="rgb(82.096863%, 18.836975%, 18.836975%)" offset="0.46875"/><stop stop-opacity="1" stop-color="rgb(81.768799%, 18.557739%, 18.557739%)" offset="0.476562"/><stop stop-opacity="1" stop-color="rgb(81.442261%, 18.278503%, 18.278503%)" offset="0.484375"/><stop stop-opacity="1" stop-color="rgb(81.114197%, 17.999268%, 17.999268%)" offset="0.492187"/><stop stop-opacity="1" stop-color="rgb(80.786133%, 17.720032%, 17.720032%)" offset="0.5"/><stop stop-opacity="1" stop-color="rgb(80.458069%, 17.440796%, 17.440796%)" offset="0.507812"/><stop stop-opacity="1" stop-color="rgb(80.131531%, 17.16156%, 17.16156%)" offset="0.515625"/><stop stop-opacity="1" stop-color="rgb(79.803467%, 16.882324%, 16.882324%)" offset="0.523437"/><stop stop-opacity="1" stop-color="rgb(79.475403%, 16.603088%, 16.603088%)" offset="0.53125"/><stop stop-opacity="1" stop-color="rgb(79.147339%, 16.323853%, 16.323853%)" offset="0.539062"/><stop stop-opacity="1" stop-color="rgb(78.820801%, 16.043091%, 16.043091%)" offset="0.546875"/><stop stop-opacity="1" stop-color="rgb(78.492737%, 15.763855%, 15.763855%)" offset="0.554687"/><stop stop-opacity="1" stop-color="rgb(78.164673%, 15.484619%, 15.484619%)" offset="0.5625"/><stop stop-opacity="1" stop-color="rgb(77.836609%, 15.205383%, 15.205383%)" offset="0.570312"/><stop stop-opacity="1" stop-color="rgb(77.508545%, 14.926147%, 14.926147%)" offset="0.578125"/><stop stop-opacity="1" stop-color="rgb(77.182007%, 14.646912%, 14.646912%)" offset="0.585937"/><stop stop-opacity="1" stop-color="rgb(76.853943%, 14.367676%, 14.367676%)" offset="0.59375"/><stop stop-opacity="1" stop-color="rgb(76.525879%, 14.08844%, 14.08844%)" offset="0.601562"/><stop stop-opacity="1" stop-color="rgb(76.197815%, 13.809204%, 13.809204%)" offset="0.609375"/><stop stop-opacity="1" stop-color="rgb(75.871277%, 13.529968%, 13.529968%)" offset="0.617188"/><stop stop-opacity="1" stop-color="rgb(75.543213%, 13.250732%, 13.250732%)" offset="0.625"/><stop stop-opacity="1" stop-color="rgb(75.215149%, 12.969971%, 12.969971%)" offset="0.632812"/><stop stop-opacity="1" stop-color="rgb(74.887085%, 12.690735%, 12.690735%)" offset="0.640625"/><stop stop-opacity="1" stop-color="rgb(74.560547%, 12.411499%, 12.411499%)" offset="0.648437"/><stop stop-opacity="1" stop-color="rgb(74.232483%, 12.132263%, 12.132263%)" offset="0.65625"/><stop stop-opacity="1" stop-color="rgb(73.904419%, 11.853027%, 11.853027%)" offset="0.664062"/><stop stop-opacity="1" stop-color="rgb(73.576355%, 11.573792%, 11.573792%)" offset="0.671875"/><stop stop-opacity="1" stop-color="rgb(73.248291%, 11.294556%, 11.294556%)" offset="0.679687"/><stop stop-opacity="1" stop-color="rgb(72.921753%, 11.01532%, 11.01532%)" offset="0.6875"/><stop stop-opacity="1" stop-color="rgb(72.593689%, 10.736084%, 10.736084%)" offset="0.695312"/><stop stop-opacity="1" stop-color="rgb(72.265625%, 10.456848%, 10.456848%)" offset="0.703125"/><stop stop-opacity="1" stop-color="rgb(71.937561%, 10.177612%, 10.177612%)" offset="0.710937"/><stop stop-opacity="1" stop-color="rgb(71.611023%, 9.896851%, 9.896851%)" offset="0.71875"/><stop stop-opacity="1" stop-color="rgb(71.282959%, 9.617615%, 9.617615%)" offset="0.726562"/><stop stop-opacity="1" stop-color="rgb(70.954895%, 9.338379%, 9.338379%)" offset="0.734375"/><stop stop-opacity="1" stop-color="rgb(70.626831%, 9.059143%, 9.059143%)" offset="0.742188"/><stop stop-opacity="1" stop-color="rgb(70.300293%, 8.779907%, 8.779907%)" offset="0.75"/><stop stop-opacity="1" stop-color="rgb(69.972229%, 8.500671%, 8.500671%)" offset="0.757812"/><stop stop-opacity="1" stop-color="rgb(69.644165%, 8.221436%, 8.221436%)" offset="0.765625"/><stop stop-opacity="1" stop-color="rgb(69.316101%, 7.9422%, 7.9422%)" offset="0.773438"/><stop stop-opacity="1" stop-color="rgb(68.988037%, 7.662964%, 7.662964%)" offset="0.78125"/><stop stop-opacity="1" stop-color="rgb(68.661499%, 7.383728%, 7.383728%)" offset="0.789062"/><stop stop-opacity="1" stop-color="rgb(68.333435%, 7.104492%, 7.104492%)" offset="0.796875"/><stop stop-opacity="1" stop-color="rgb(68.005371%, 6.82373%, 6.82373%)" offset="0.804687"/><stop stop-opacity="1" stop-color="rgb(67.677307%, 6.544495%, 6.544495%)" offset="0.8125"/><stop stop-opacity="1" stop-color="rgb(67.350769%, 6.265259%, 6.265259%)" offset="0.820312"/><stop stop-opacity="1" stop-color="rgb(67.022705%, 5.986023%, 5.986023%)" offset="0.828125"/><stop stop-opacity="1" stop-color="rgb(66.694641%, 5.706787%, 5.706787%)" offset="0.835937"/><stop stop-opacity="1" stop-color="rgb(66.366577%, 5.427551%, 5.427551%)" offset="0.84375"/><stop stop-opacity="1" stop-color="rgb(66.040039%, 5.148315%, 5.148315%)" offset="0.851562"/><stop stop-opacity="1" stop-color="rgb(65.711975%, 4.86908%, 4.86908%)" offset="0.859375"/><stop stop-opacity="1" stop-color="rgb(65.383911%, 4.589844%, 4.589844%)" offset="0.867187"/><stop stop-opacity="1" stop-color="rgb(65.055847%, 4.310608%, 4.310608%)" offset="0.875"/><stop stop-opacity="1" stop-color="rgb(64.727783%, 4.031372%, 4.031372%)" offset="0.882812"/><stop stop-opacity="1" stop-color="rgb(64.401245%, 3.75061%, 3.75061%)" offset="0.890625"/><stop stop-opacity="1" stop-color="rgb(64.073181%, 3.471375%, 3.471375%)" offset="0.898437"/><stop stop-opacity="1" stop-color="rgb(63.745117%, 3.192139%, 3.192139%)" offset="0.90625"/><stop stop-opacity="1" stop-color="rgb(63.417053%, 2.912903%, 2.912903%)" offset="0.914062"/><stop stop-opacity="1" stop-color="rgb(63.090515%, 2.633667%, 2.633667%)" offset="0.921875"/><stop stop-opacity="1" stop-color="rgb(62.762451%, 2.354431%, 2.354431%)" offset="0.929688"/><stop stop-opacity="1" stop-color="rgb(62.434387%, 2.075195%, 2.075195%)" offset="0.9375"/><stop stop-opacity="1" stop-color="rgb(62.106323%, 1.795959%, 1.795959%)" offset="0.945312"/><stop stop-opacity="1" stop-color="rgb(61.779785%, 1.516724%, 1.516724%)" offset="0.953125"/><stop stop-opacity="1" stop-color="rgb(61.451721%, 1.237488%, 1.237488%)" offset="0.960938"/><stop stop-opacity="1" stop-color="rgb(61.123657%, 0.958252%, 0.958252%)" offset="0.96875"/><stop stop-opacity="1" stop-color="rgb(60.795593%, 0.67749%, 0.67749%)" offset="0.976563"/><stop stop-opacity="1" stop-color="rgb(60.467529%, 0.398254%, 0.398254%)" offset="0.984375"/><stop stop-opacity="1" stop-color="rgb(60.151672%, 0.1297%, 0.1297%)" offset="1"/></linearGradient><clipPath id="ba912664ca"><path d="M 24 32 L 34 32 L 34 45.617188 L 24 45.617188 Z M 24 32 " clip-rule="nonzero"/></clipPath><clipPath id="61c6d2a7ff"><path d="M 24 20 L 49.15625 20 L 49.15625 45.617188 L 24 45.617188 Z M 24 20 " clip-rule="nonzero"/></clipPath><clipPath id="aa5336e9cb"><path d="M 24.445312 45.128906 C 24.433594 43.476562 24.625 38.019531 27.308594 32.6875 C 28.15625 31.007812 29.246094 29.34375 30.65625 27.8125 C 34.3125 23.851562 40.109375 20.796875 49.292969 20.796875 L 49.292969 30.113281 C 42.523438 30.113281 37.59375 31.148438 34.003906 32.6875 C 32.726562 33.234375 31.617188 33.84375 30.65625 34.496094 C 25.007812 38.324219 24.46875 43.515625 24.445312 45.128906 Z M 24.445312 45.128906 " clip-rule="nonzero"/></clipPath><linearGradient x1="168.754295" gradientTransform="matrix(-0.103318, 0, 0, -0.103318, 66.590761, 29.061633)" y1="-37.771" x2="408.042035" gradientUnits="userSpaceOnUse" y2="-37.771" id="91329ff59b"><stop stop-opacity="1" stop-color="rgb(100%, 34.098816%, 34.098816%)" offset="0"/><stop stop-opacity="1" stop-color="rgb(100%, 34.098816%, 34.098816%)" offset="0.03125"/><stop stop-opacity="1" stop-color="rgb(99.868774%, 33.987427%, 33.987427%)" offset="0.0390625"/><stop stop-opacity="1" stop-color="rgb(99.57428%, 33.737183%, 33.737183%)" offset="0.046875"/><stop stop-opacity="1" stop-color="rgb(99.247742%, 33.459473%, 33.459473%)" offset="0.0546875"/><stop stop-opacity="1" stop-color="rgb(98.922729%, 33.181763%, 33.181763%)" offset="0.0625"/><stop stop-opacity="1" stop-color="rgb(98.596191%, 32.904053%, 32.904053%)" offset="0.0703125"/><stop stop-opacity="1" stop-color="rgb(98.271179%, 32.626343%, 32.626343%)" offset="0.078125"/><stop stop-opacity="1" stop-color="rgb(97.944641%, 32.347107%, 32.347107%)" offset="0.0859375"/><stop stop-opacity="1" stop-color="rgb(97.618103%, 32.069397%, 32.069397%)" offset="0.09375"/><stop stop-opacity="1" stop-color="rgb(97.293091%, 31.791687%, 31.791687%)" offset="0.101563"/><stop stop-opacity="1" stop-color="rgb(96.966553%, 31.513977%, 31.513977%)" offset="0.109375"/><stop stop-opacity="1" stop-color="rgb(96.641541%, 31.236267%, 31.236267%)" offset="0.117188"/><stop stop-opacity="1" stop-color="rgb(96.315002%, 30.958557%, 30.958557%)" offset="0.125"/><stop stop-opacity="1" stop-color="rgb(95.988464%, 30.680847%, 30.680847%)" offset="0.132813"/><stop stop-opacity="1" stop-color="rgb(95.663452%, 30.403137%, 30.403137%)" offset="0.140625"/><stop stop-opacity="1" stop-color="rgb(95.336914%, 30.125427%, 30.125427%)" offset="0.148438"/><stop stop-opacity="1" stop-color="rgb(95.011902%, 29.847717%, 29.847717%)" offset="0.15625"/><stop stop-opacity="1" stop-color="rgb(94.685364%, 29.570007%, 29.570007%)" offset="0.164063"/><stop stop-opacity="1" stop-color="rgb(94.358826%, 29.290771%, 29.290771%)" offset="0.171875"/><stop stop-opacity="1" stop-color="rgb(94.033813%, 29.013062%, 29.013062%)" offset="0.179688"/><stop stop-opacity="1" stop-color="rgb(93.707275%, 28.735352%, 28.735352%)" offset="0.1875"/><stop stop-opacity="1" stop-color="rgb(93.382263%, 28.457642%, 28.457642%)" offset="0.195312"/><stop stop-opacity="1" stop-color="rgb(93.055725%, 28.179932%, 28.179932%)" offset="0.203125"/><stop stop-opacity="1" stop-color="rgb(92.729187%, 27.902222%, 27.902222%)" offset="0.210938"/><stop stop-opacity="1" stop-color="rgb(92.404175%, 27.624512%, 27.624512%)" offset="0.21875"/><stop stop-opacity="1" stop-color="rgb(92.077637%, 27.346802%, 27.346802%)" offset="0.226562"/><stop stop-opacity="1" stop-color="rgb(91.752625%, 27.069092%, 27.069092%)" offset="0.234375"/><stop stop-opacity="1" stop-color="rgb(91.426086%, 26.791382%, 26.791382%)" offset="0.242188"/><stop stop-opacity="1" stop-color="rgb(91.099548%, 26.513672%, 26.513672%)" offset="0.25"/><stop stop-opacity="1" stop-color="rgb(90.774536%, 26.234436%, 26.234436%)" offset="0.257813"/><stop stop-opacity="1" stop-color="rgb(90.447998%, 25.956726%, 25.956726%)" offset="0.265625"/><stop stop-opacity="1" stop-color="rgb(90.122986%, 25.679016%, 25.679016%)" offset="0.273438"/><stop stop-opacity="1" stop-color="rgb(89.796448%, 25.401306%, 25.401306%)" offset="0.28125"/><stop stop-opacity="1" stop-color="rgb(89.46991%, 25.123596%, 25.123596%)" offset="0.289062"/><stop stop-opacity="1" stop-color="rgb(89.144897%, 24.845886%, 24.845886%)" offset="0.296875"/><stop stop-opacity="1" stop-color="rgb(88.818359%, 24.568176%, 24.568176%)" offset="0.304688"/><stop stop-opacity="1" stop-color="rgb(88.493347%, 24.290466%, 24.290466%)" offset="0.3125"/><stop stop-opacity="1" stop-color="rgb(88.166809%, 24.012756%, 24.012756%)" offset="0.320313"/><stop stop-opacity="1" stop-color="rgb(87.840271%, 23.735046%, 23.735046%)" offset="0.328125"/><stop stop-opacity="1" stop-color="rgb(87.515259%, 23.457336%, 23.457336%)" offset="0.335938"/><stop stop-opacity="1" stop-color="rgb(87.188721%, 23.178101%, 23.178101%)" offset="0.34375"/><stop stop-opacity="1" stop-color="rgb(86.863708%, 22.900391%, 22.900391%)" offset="0.351563"/><stop stop-opacity="1" stop-color="rgb(86.53717%, 22.622681%, 22.622681%)" offset="0.359375"/><stop stop-opacity="1" stop-color="rgb(86.210632%, 22.344971%, 22.344971%)" offset="0.367188"/><stop stop-opacity="1" stop-color="rgb(85.88562%, 22.067261%, 22.067261%)" offset="0.375"/><stop stop-opacity="1" stop-color="rgb(85.559082%, 21.789551%, 21.789551%)" offset="0.382813"/><stop stop-opacity="1" stop-color="rgb(85.23407%, 21.511841%, 21.511841%)" offset="0.390625"/><stop stop-opacity="1" stop-color="rgb(84.907532%, 21.234131%, 21.234131%)" offset="0.398438"/><stop stop-opacity="1" stop-color="rgb(84.580994%, 20.956421%, 20.956421%)" offset="0.40625"/><stop stop-opacity="1" stop-color="rgb(84.255981%, 20.678711%, 20.678711%)" offset="0.414063"/><stop stop-opacity="1" stop-color="rgb(83.929443%, 20.399475%, 20.399475%)" offset="0.421875"/><stop stop-opacity="1" stop-color="rgb(83.604431%, 20.121765%, 20.121765%)" offset="0.429688"/><stop stop-opacity="1" stop-color="rgb(83.277893%, 19.844055%, 19.844055%)" offset="0.4375"/><stop stop-opacity="1" stop-color="rgb(82.951355%, 19.566345%, 19.566345%)" offset="0.445313"/><stop stop-opacity="1" stop-color="rgb(82.626343%, 19.288635%, 19.288635%)" offset="0.453125"/><stop stop-opacity="1" stop-color="rgb(82.299805%, 19.010925%, 19.010925%)" offset="0.460938"/><stop stop-opacity="1" stop-color="rgb(81.974792%, 18.733215%, 18.733215%)" offset="0.46875"/><stop stop-opacity="1" stop-color="rgb(81.648254%, 18.455505%, 18.455505%)" offset="0.476563"/><stop stop-opacity="1" stop-color="rgb(81.321716%, 18.177795%, 18.177795%)" offset="0.484375"/><stop stop-opacity="1" stop-color="rgb(80.996704%, 17.900085%, 17.900085%)" offset="0.492188"/><stop stop-opacity="1" stop-color="rgb(80.670166%, 17.622375%, 17.622375%)" offset="0.5"/><stop stop-opacity="1" stop-color="rgb(80.345154%, 17.34314%, 17.34314%)" offset="0.507812"/><stop stop-opacity="1" stop-color="rgb(80.018616%, 17.06543%, 17.06543%)" offset="0.515625"/><stop stop-opacity="1" stop-color="rgb(79.692078%, 16.78772%, 16.78772%)" offset="0.523437"/><stop stop-opacity="1" stop-color="rgb(79.367065%, 16.51001%, 16.51001%)" offset="0.53125"/><stop stop-opacity="1" stop-color="rgb(79.040527%, 16.2323%, 16.2323%)" offset="0.539062"/><stop stop-opacity="1" stop-color="rgb(78.715515%, 15.95459%, 15.95459%)" offset="0.546875"/><stop stop-opacity="1" stop-color="rgb(78.388977%, 15.67688%, 15.67688%)" offset="0.554688"/><stop stop-opacity="1" stop-color="rgb(78.062439%, 15.39917%, 15.39917%)" offset="0.5625"/><stop stop-opacity="1" stop-color="rgb(77.737427%, 15.12146%, 15.12146%)" offset="0.570312"/><stop stop-opacity="1" stop-color="rgb(77.410889%, 14.84375%, 14.84375%)" offset="0.578125"/><stop stop-opacity="1" stop-color="rgb(77.085876%, 14.56604%, 14.56604%)" offset="0.585938"/><stop stop-opacity="1" stop-color="rgb(76.759338%, 14.286804%, 14.286804%)" offset="0.59375"/><stop stop-opacity="1" stop-color="rgb(76.4328%, 14.009094%, 14.009094%)" offset="0.601562"/><stop stop-opacity="1" stop-color="rgb(76.107788%, 13.731384%, 13.731384%)" offset="0.609375"/><stop stop-opacity="1" stop-color="rgb(75.78125%, 13.453674%, 13.453674%)" offset="0.617187"/><stop stop-opacity="1" stop-color="rgb(75.456238%, 13.175964%, 13.175964%)" offset="0.625"/><stop stop-opacity="1" stop-color="rgb(75.1297%, 12.898254%, 12.898254%)" offset="0.632812"/><stop stop-opacity="1" stop-color="rgb(74.803162%, 12.620544%, 12.620544%)" offset="0.640625"/><stop stop-opacity="1" stop-color="rgb(74.478149%, 12.342834%, 12.342834%)" offset="0.648438"/><stop stop-opacity="1" stop-color="rgb(74.151611%, 12.065125%, 12.065125%)" offset="0.65625"/><stop stop-opacity="1" stop-color="rgb(73.826599%, 11.787415%, 11.787415%)" offset="0.664062"/><stop stop-opacity="1" stop-color="rgb(73.500061%, 11.509705%, 11.509705%)" offset="0.671875"/><stop stop-opacity="1" stop-color="rgb(73.173523%, 11.230469%, 11.230469%)" offset="0.679688"/><stop stop-opacity="1" stop-color="rgb(72.848511%, 10.952759%, 10.952759%)" offset="0.6875"/><stop stop-opacity="1" stop-color="rgb(72.521973%, 10.675049%, 10.675049%)" offset="0.695313"/><stop stop-opacity="1" stop-color="rgb(72.19696%, 10.397339%, 10.397339%)" offset="0.703125"/><stop stop-opacity="1" stop-color="rgb(71.870422%, 10.119629%, 10.119629%)" offset="0.710937"/><stop stop-opacity="1" stop-color="rgb(71.543884%, 9.841919%, 9.841919%)" offset="0.71875"/><stop stop-opacity="1" stop-color="rgb(71.218872%, 9.564209%, 9.564209%)" offset="0.726562"/><stop stop-opacity="1" stop-color="rgb(70.892334%, 9.286499%, 9.286499%)" offset="0.734375"/><stop stop-opacity="1" stop-color="rgb(70.567322%, 9.008789%, 9.008789%)" offset="0.742188"/><stop stop-opacity="1" stop-color="rgb(70.240784%, 8.731079%, 8.731079%)" offset="0.75"/><stop stop-opacity="1" stop-color="rgb(69.914246%, 8.451843%, 8.451843%)" offset="0.757812"/><stop stop-opacity="1" stop-color="rgb(69.589233%, 8.174133%, 8.174133%)" offset="0.765625"/><stop stop-opacity="1" stop-color="rgb(69.262695%, 7.896423%, 7.896423%)" offset="0.773438"/><stop stop-opacity="1" stop-color="rgb(68.937683%, 7.618713%, 7.618713%)" offset="0.78125"/><stop stop-opacity="1" stop-color="rgb(68.611145%, 7.341003%, 7.341003%)" offset="0.789063"/><stop stop-opacity="1" stop-color="rgb(68.284607%, 7.063293%, 7.063293%)" offset="0.796875"/><stop stop-opacity="1" stop-color="rgb(67.959595%, 6.785583%, 6.785583%)" offset="0.804687"/><stop stop-opacity="1" stop-color="rgb(67.633057%, 6.507874%, 6.507874%)" offset="0.8125"/><stop stop-opacity="1" stop-color="rgb(67.308044%, 6.230164%, 6.230164%)" offset="0.820312"/><stop stop-opacity="1" stop-color="rgb(66.981506%, 5.952454%, 5.952454%)" offset="0.828125"/><stop stop-opacity="1" stop-color="rgb(66.654968%, 5.674744%, 5.674744%)" offset="0.835938"/><stop stop-opacity="1" stop-color="rgb(66.329956%, 5.395508%, 5.395508%)" offset="0.84375"/><stop stop-opacity="1" stop-color="rgb(66.003418%, 5.117798%, 5.117798%)" offset="0.851562"/><stop stop-opacity="1" stop-color="rgb(65.678406%, 4.840088%, 4.840088%)" offset="0.859375"/><stop stop-opacity="1" stop-color="rgb(65.351868%, 4.562378%, 4.562378%)" offset="0.867188"/><stop stop-opacity="1" stop-color="rgb(65.02533%, 4.284668%, 4.284668%)" offset="0.875"/><stop stop-opacity="1" stop-color="rgb(64.700317%, 4.006958%, 4.006958%)" offset="0.882813"/><stop stop-opacity="1" stop-color="rgb(64.373779%, 3.729248%, 3.729248%)" offset="0.890625"/><stop stop-opacity="1" stop-color="rgb(64.048767%, 3.451538%, 3.451538%)" offset="0.898438"/><stop stop-opacity="1" stop-color="rgb(63.722229%, 3.173828%, 3.173828%)" offset="0.90625"/><stop stop-opacity="1" stop-color="rgb(63.397217%, 2.896118%, 2.896118%)" offset="0.914062"/><stop stop-opacity="1" stop-color="rgb(63.070679%, 2.618408%, 2.618408%)" offset="0.921875"/><stop stop-opacity="1" stop-color="rgb(62.744141%, 2.339172%, 2.339172%)" offset="0.929688"/><stop stop-opacity="1" stop-color="rgb(62.419128%, 2.061462%, 2.061462%)" offset="0.9375"/><stop stop-opacity="1" stop-color="rgb(62.09259%, 1.783752%, 1.783752%)" offset="0.945312"/><stop stop-opacity="1" stop-color="rgb(61.767578%, 1.506042%, 1.506042%)" offset="0.953125"/><stop stop-opacity="1" stop-color="rgb(61.44104%, 1.228333%, 1.228333%)" offset="0.960938"/><stop stop-opacity="1" stop-color="rgb(61.114502%, 0.950623%, 0.950623%)" offset="0.96875"/><stop stop-opacity="1" stop-color="rgb(60.78949%, 0.672913%, 0.672913%)" offset="0.976563"/><stop stop-opacity="1" stop-color="rgb(60.462952%, 0.395203%, 0.395203%)" offset="0.984375"/><stop stop-opacity="1" stop-color="rgb(60.150146%, 0.128174%, 0.128174%)" offset="1"/></linearGradient></defs><g clip-path="url(#816ad86b78)"><path fill="#990000" d="M 24.441406 21.746094 L 24.441406 8.378906 L 33.765625 8.378906 C 33.765625 8.378906 33.890625 14.636719 31.507812 17.15625 C 29.125 19.675781 24.441406 21.746094 24.441406 21.746094 Z M 24.441406 21.746094 " fill-opacity="1" fill-rule="nonzero"/></g><g clip-path="url(#7611ab9687)"><g clip-path="url(#440322a3be)"><path fill="url(#182bba6a52)" d="M 8.917969 8.882812 L 8.917969 33.214844 L 33.777344 33.214844 L 33.777344 8.882812 Z M 8.917969 8.882812 " fill-rule="nonzero"/></g></g><g clip-path="url(#ba912664ca)"><path fill="#990000" d="M 33.769531 32.269531 L 33.769531 45.632812 L 24.441406 45.632812 C 24.441406 45.632812 24.316406 39.378906 26.703125 36.859375 C 29.085938 34.339844 33.769531 32.269531 33.769531 32.269531 Z M 33.769531 32.269531 " fill-opacity="1" fill-rule="nonzero"/></g><g clip-path="url(#61c6d2a7ff)"><g clip-path="url(#aa5336e9cb)"><path fill="url(#91329ff59b)" d="M 49.15625 45.128906 L 49.15625 20.796875 L 24.433594 20.796875 L 24.433594 45.128906 Z M 49.15625 45.128906 " fill-rule="nonzero"/></g></g><g fill="#990000" fill-opacity="1"><g transform="translate(51.574264, 33.931489)"><g><path d="M 11.46875 0.21875 C 9.550781 0.21875 7.816406 -0.203125 6.265625 -1.046875 C 4.722656 -1.898438 3.507812 -3.070312 2.625 -4.5625 C 1.75 -6.0625 1.3125 -7.742188 1.3125 -9.609375 C 1.3125 -11.472656 1.75 -13.148438 2.625 -14.640625 C 3.507812 -16.140625 4.726562 -17.3125 6.28125 -18.15625 C 7.84375 -19.007812 9.582031 -19.4375 11.5 -19.4375 C 13 -19.4375 14.367188 -19.179688 15.609375 -18.671875 C 16.859375 -18.171875 17.925781 -17.425781 18.8125 -16.4375 L 17.015625 -14.71875 C 15.578125 -16.238281 13.773438 -17 11.609375 -17 C 10.179688 -17 8.890625 -16.675781 7.734375 -16.03125 C 6.585938 -15.394531 5.6875 -14.507812 5.03125 -13.375 C 4.382812 -12.25 4.0625 -10.992188 4.0625 -9.609375 C 4.0625 -8.210938 4.382812 -6.953125 5.03125 -5.828125 C 5.6875 -4.703125 6.585938 -3.816406 7.734375 -3.171875 C 8.890625 -2.535156 10.179688 -2.21875 11.609375 -2.21875 C 13.753906 -2.21875 15.554688 -2.988281 17.015625 -4.53125 L 18.8125 -2.796875 C 17.925781 -1.804688 16.859375 -1.054688 15.609375 -0.546875 C 14.359375 -0.0351562 12.976562 0.21875 11.46875 0.21875 Z M 11.46875 0.21875 "/></g></g></g><g fill="#990000" fill-opacity="1"><g transform="translate(73.262765, 33.931489)"><g><path d="M 10.84375 0.21875 C 8.28125 0.21875 6.285156 -0.507812 4.859375 -1.96875 C 3.429688 -3.4375 2.71875 -5.546875 2.71875 -8.296875 L 2.71875 -19.21875 L 5.46875 -19.21875 L 5.46875 -8.40625 C 5.46875 -4.28125 7.269531 -2.21875 10.875 -2.21875 C 12.625 -2.21875 13.96875 -2.722656 14.90625 -3.734375 C 15.84375 -4.753906 16.3125 -6.3125 16.3125 -8.40625 L 16.3125 -19.21875 L 18.96875 -19.21875 L 18.96875 -8.296875 C 18.96875 -5.523438 18.253906 -3.410156 16.828125 -1.953125 C 15.398438 -0.503906 13.40625 0.21875 10.84375 0.21875 Z M 10.84375 0.21875 "/></g></g></g><g fill="#990000" fill-opacity="1"><g transform="translate(96.818104, 33.931489)"><g><path d="M 2.875 -19.21875 L 5.625 -19.21875 L 5.625 0 L 2.875 0 Z M 2.875 -19.21875 "/></g></g></g><g fill="#990000" fill-opacity="1"><g transform="translate(107.168355, 33.931489)"><g><path d="M 2.875 -19.21875 L 10.984375 -19.21875 C 13.015625 -19.21875 14.816406 -18.8125 16.390625 -18 C 17.960938 -17.195312 19.179688 -16.066406 20.046875 -14.609375 C 20.921875 -13.160156 21.359375 -11.492188 21.359375 -9.609375 C 21.359375 -7.722656 20.921875 -6.050781 20.046875 -4.59375 C 19.179688 -3.144531 17.960938 -2.015625 16.390625 -1.203125 C 14.816406 -0.398438 13.015625 0 10.984375 0 L 2.875 0 Z M 10.8125 -2.390625 C 12.375 -2.390625 13.742188 -2.691406 14.921875 -3.296875 C 16.097656 -3.898438 17.003906 -4.742188 17.640625 -5.828125 C 18.285156 -6.921875 18.609375 -8.179688 18.609375 -9.609375 C 18.609375 -11.035156 18.285156 -12.289062 17.640625 -13.375 C 17.003906 -14.46875 16.097656 -15.316406 14.921875 -15.921875 C 13.742188 -16.523438 12.375 -16.828125 10.8125 -16.828125 L 5.625 -16.828125 L 5.625 -2.390625 Z M 10.8125 -2.390625 "/></g></g></g><g fill="#990000" fill-opacity="1"><g transform="translate(131.684554, 33.931489)"><g><path d="M 15.125 -4.796875 L 4.921875 -4.796875 L 2.796875 0 L -0.03125 0 L 8.671875 -19.21875 L 11.390625 -19.21875 L 20.125 0 L 17.234375 0 Z M 14.171875 -7 L 10.015625 -16.421875 L 5.875 -7 Z M 14.171875 -7 "/></g></g></g><g fill="#990000" fill-opacity="1"><g transform="translate(153.620143, 33.931489)"><g><path d="M 6.703125 -16.828125 L 0.109375 -16.828125 L 0.109375 -19.21875 L 16 -19.21875 L 16 -16.828125 L 9.421875 -16.828125 L 9.421875 0 L 6.703125 0 Z M 6.703125 -16.828125 "/></g></g></g><g fill="#990000" fill-opacity="1"><g transform="translate(171.574991, 33.931489)"><g><path d="M 16.203125 -9.71875 L 18.828125 -9.71875 L 18.828125 -2.21875 C 17.878906 -1.4375 16.769531 -0.832031 15.5 -0.40625 C 14.238281 0.0078125 12.925781 0.21875 11.5625 0.21875 C 9.613281 0.21875 7.863281 -0.203125 6.3125 -1.046875 C 4.757812 -1.898438 3.535156 -3.070312 2.640625 -4.5625 C 1.753906 -6.0625 1.3125 -7.742188 1.3125 -9.609375 C 1.3125 -11.472656 1.753906 -13.15625 2.640625 -14.65625 C 3.535156 -16.15625 4.765625 -17.328125 6.328125 -18.171875 C 7.890625 -19.015625 9.648438 -19.4375 11.609375 -19.4375 C 13.148438 -19.4375 14.546875 -19.179688 15.796875 -18.671875 C 17.054688 -18.171875 18.125 -17.4375 19 -16.46875 L 17.296875 -14.765625 C 15.753906 -16.253906 13.894531 -17 11.71875 -17 C 10.257812 -17 8.945312 -16.679688 7.78125 -16.046875 C 6.625 -15.410156 5.710938 -14.53125 5.046875 -13.40625 C 4.390625 -12.28125 4.0625 -11.015625 4.0625 -9.609375 C 4.0625 -8.210938 4.390625 -6.953125 5.046875 -5.828125 C 5.710938 -4.703125 6.625 -3.816406 7.78125 -3.171875 C 8.945312 -2.535156 10.25 -2.21875 11.6875 -2.21875 C 13.414062 -2.21875 14.921875 -2.628906 16.203125 -3.453125 Z M 16.203125 -9.71875 "/></g></g></g><g fill="#990000" fill-opacity="1"><g transform="translate(194.608707, 33.931489)"><g><path d="M 16.828125 -2.390625 L 16.828125 0 L 2.875 0 L 2.875 -19.21875 L 16.4375 -19.21875 L 16.4375 -16.828125 L 5.625 -16.828125 L 5.625 -10.921875 L 15.265625 -10.921875 L 15.265625 -8.59375 L 5.625 -8.59375 L 5.625 -2.390625 Z M 16.828125 -2.390625 "/></g></g></g><g fill="#990000" fill-opacity="1"><g transform="translate(5.995674, 56.40441)"><g><path d="M 5.421875 0 L 3.984375 -2.03125 C 3.804688 -2.019531 3.671875 -2.015625 3.578125 -2.015625 L 1.9375 -2.015625 L 1.9375 0 L 1 0 L 1 -6.609375 L 3.578125 -6.609375 C 4.429688 -6.609375 5.101562 -6.40625 5.59375 -6 C 6.082031 -5.59375 6.328125 -5.03125 6.328125 -4.3125 C 6.328125 -3.800781 6.203125 -3.363281 5.953125 -3 C 5.703125 -2.644531 5.34375 -2.382812 4.875 -2.21875 L 6.453125 0 Z M 3.546875 -2.8125 C 4.140625 -2.8125 4.59375 -2.941406 4.90625 -3.203125 C 5.226562 -3.460938 5.390625 -3.832031 5.390625 -4.3125 C 5.390625 -4.789062 5.226562 -5.15625 4.90625 -5.40625 C 4.59375 -5.664062 4.140625 -5.796875 3.546875 -5.796875 L 1.9375 -5.796875 L 1.9375 -2.8125 Z M 3.546875 -2.8125 "/></g></g></g><g fill="#990000" fill-opacity="1"><g transform="translate(15.327914, 56.40441)"><g><path d="M 5.796875 -0.828125 L 5.796875 0 L 1 0 L 1 -6.609375 L 5.65625 -6.609375 L 5.65625 -5.796875 L 1.9375 -5.796875 L 1.9375 -3.765625 L 5.25 -3.765625 L 5.25 -2.953125 L 1.9375 -2.953125 L 1.9375 -0.828125 Z M 5.796875 -0.828125 "/></g></g></g><g fill="#990000" fill-opacity="1"><g transform="translate(24.121294, 56.40441)"><g><path d="M 1.9375 -5.796875 L 1.9375 -3.484375 L 5.25 -3.484375 L 5.25 -2.671875 L 1.9375 -2.671875 L 1.9375 0 L 1 0 L 1 -6.609375 L 5.65625 -6.609375 L 5.65625 -5.796875 Z M 1.9375 -5.796875 "/></g></g></g><g fill="#990000" fill-opacity="1"><g transform="translate(32.583791, 56.40441)"><g><path d="M 5.796875 -0.828125 L 5.796875 0 L 1 0 L 1 -6.609375 L 5.65625 -6.609375 L 5.65625 -5.796875 L 1.9375 -5.796875 L 1.9375 -3.765625 L 5.25 -3.765625 L 5.25 -2.953125 L 1.9375 -2.953125 L 1.9375 -0.828125 Z M 5.796875 -0.828125 "/></g></g></g><g fill="#990000" fill-opacity="1"><g transform="translate(41.377172, 56.40441)"><g><path d="M 5.421875 0 L 3.984375 -2.03125 C 3.804688 -2.019531 3.671875 -2.015625 3.578125 -2.015625 L 1.9375 -2.015625 L 1.9375 0 L 1 0 L 1 -6.609375 L 3.578125 -6.609375 C 4.429688 -6.609375 5.101562 -6.40625 5.59375 -6 C 6.082031 -5.59375 6.328125 -5.03125 6.328125 -4.3125 C 6.328125 -3.800781 6.203125 -3.363281 5.953125 -3 C 5.703125 -2.644531 5.34375 -2.382812 4.875 -2.21875 L 6.453125 0 Z M 3.546875 -2.8125 C 4.140625 -2.8125 4.59375 -2.941406 4.90625 -3.203125 C 5.226562 -3.460938 5.390625 -3.832031 5.390625 -4.3125 C 5.390625 -4.789062 5.226562 -5.15625 4.90625 -5.40625 C 4.59375 -5.664062 4.140625 -5.796875 3.546875 -5.796875 L 1.9375 -5.796875 L 1.9375 -2.8125 Z M 3.546875 -2.8125 "/></g></g></g><g fill="#990000" fill-opacity="1"><g transform="translate(50.709412, 56.40441)"><g><path d="M 5.796875 -0.828125 L 5.796875 0 L 1 0 L 1 -6.609375 L 5.65625 -6.609375 L 5.65625 -5.796875 L 1.9375 -5.796875 L 1.9375 -3.765625 L 5.25 -3.765625 L 5.25 -2.953125 L 1.9375 -2.953125 L 1.9375 -0.828125 Z M 1.609375 -8.390625 L 2.765625 -8.390625 L 4.046875 -7.15625 L 3.1875 -7.15625 Z M 1.609375 -8.390625 "/></g></g></g><g fill="#990000" fill-opacity="1"><g transform="translate(59.502791, 56.40441)"><g><path d="M 6.6875 -6.609375 L 6.6875 0 L 5.90625 0 L 1.9375 -4.9375 L 1.9375 0 L 1 0 L 1 -6.609375 L 1.765625 -6.609375 L 5.734375 -1.6875 L 5.734375 -6.609375 Z M 6.6875 -6.609375 "/></g></g></g><g fill="#990000" fill-opacity="1"><g transform="translate(69.638602, 56.40441)"><g><path d="M 3.953125 0.078125 C 3.285156 0.078125 2.6875 -0.0664062 2.15625 -0.359375 C 1.625 -0.648438 1.207031 -1.050781 0.90625 -1.5625 C 0.601562 -2.082031 0.453125 -2.664062 0.453125 -3.3125 C 0.453125 -3.945312 0.601562 -4.519531 0.90625 -5.03125 C 1.207031 -5.550781 1.625 -5.957031 2.15625 -6.25 C 2.695312 -6.539062 3.296875 -6.6875 3.953125 -6.6875 C 4.472656 -6.6875 4.945312 -6.597656 5.375 -6.421875 C 5.800781 -6.253906 6.164062 -6 6.46875 -5.65625 L 5.859375 -5.0625 C 5.359375 -5.582031 4.738281 -5.84375 4 -5.84375 C 3.507812 -5.84375 3.0625 -5.734375 2.65625 -5.515625 C 2.257812 -5.296875 1.953125 -4.992188 1.734375 -4.609375 C 1.515625 -4.222656 1.40625 -3.789062 1.40625 -3.3125 C 1.40625 -2.832031 1.515625 -2.394531 1.734375 -2 C 1.953125 -1.613281 2.257812 -1.3125 2.65625 -1.09375 C 3.0625 -0.875 3.507812 -0.765625 4 -0.765625 C 4.738281 -0.765625 5.359375 -1.03125 5.859375 -1.5625 L 6.46875 -0.96875 C 6.164062 -0.625 5.796875 -0.363281 5.359375 -0.1875 C 4.929688 -0.0078125 4.460938 0.078125 3.953125 0.078125 Z M 3.953125 0.078125 "/></g></g></g><g fill="#990000" fill-opacity="1"><g transform="translate(78.933026, 56.40441)"><g><path d="M 1 -6.609375 L 1.9375 -6.609375 L 1.9375 0 L 1 0 Z M 1 -6.609375 "/></g></g></g><g fill="#990000" fill-opacity="1"><g transform="translate(84.323035, 56.40441)"><g><path d="M 5.796875 -0.828125 L 5.796875 0 L 1 0 L 1 -6.609375 L 5.65625 -6.609375 L 5.65625 -5.796875 L 1.9375 -5.796875 L 1.9375 -3.765625 L 5.25 -3.765625 L 5.25 -2.953125 L 1.9375 -2.953125 L 1.9375 -0.828125 Z M 5.796875 -0.828125 "/></g></g></g><g fill="#990000" fill-opacity="1"><g transform="translate(93.116416, 56.40441)"><g><path d="M 2.921875 0.078125 C 2.421875 0.078125 1.9375 0 1.46875 -0.15625 C 1.007812 -0.3125 0.648438 -0.507812 0.390625 -0.75 L 0.734375 -1.5 C 0.984375 -1.269531 1.304688 -1.082031 1.703125 -0.9375 C 2.097656 -0.800781 2.503906 -0.734375 2.921875 -0.734375 C 3.472656 -0.734375 3.882812 -0.820312 4.15625 -1 C 4.425781 -1.1875 4.5625 -1.4375 4.5625 -1.75 C 4.5625 -1.976562 4.484375 -2.160156 4.328125 -2.296875 C 4.179688 -2.441406 4 -2.550781 3.78125 -2.625 C 3.5625 -2.695312 3.253906 -2.785156 2.859375 -2.890625 C 2.367188 -3.003906 1.96875 -3.117188 1.65625 -3.234375 C 1.351562 -3.359375 1.09375 -3.546875 0.875 -3.796875 C 0.65625 -4.046875 0.546875 -4.378906 0.546875 -4.796875 C 0.546875 -5.148438 0.640625 -5.46875 0.828125 -5.75 C 1.015625 -6.039062 1.296875 -6.269531 1.671875 -6.4375 C 2.046875 -6.601562 2.515625 -6.6875 3.078125 -6.6875 C 3.472656 -6.6875 3.859375 -6.632812 4.234375 -6.53125 C 4.609375 -6.4375 4.929688 -6.296875 5.203125 -6.109375 L 4.890625 -5.34375 C 4.617188 -5.519531 4.320312 -5.65625 4 -5.75 C 3.6875 -5.84375 3.378906 -5.890625 3.078125 -5.890625 C 2.546875 -5.890625 2.144531 -5.789062 1.875 -5.59375 C 1.601562 -5.394531 1.46875 -5.144531 1.46875 -4.84375 C 1.46875 -4.613281 1.539062 -4.425781 1.6875 -4.28125 C 1.84375 -4.144531 2.03125 -4.035156 2.25 -3.953125 C 2.476562 -3.878906 2.785156 -3.796875 3.171875 -3.703125 C 3.671875 -3.585938 4.070312 -3.46875 4.375 -3.34375 C 4.675781 -3.226562 4.9375 -3.046875 5.15625 -2.796875 C 5.375 -2.546875 5.484375 -2.21875 5.484375 -1.8125 C 5.484375 -1.457031 5.390625 -1.132812 5.203125 -0.84375 C 5.015625 -0.5625 4.726562 -0.335938 4.34375 -0.171875 C 3.957031 -0.00390625 3.484375 0.078125 2.921875 0.078125 Z M 2.921875 0.078125 "/></g></g></g><g fill="#990000" fill-opacity="1"><g transform="translate(101.446558, 56.40441)"><g/></g></g><g fill="#990000" fill-opacity="1"><g transform="translate(106.448954, 56.40441)"><g><path d="M 5.4375 -3.4375 C 5.820312 -3.320312 6.125 -3.125 6.34375 -2.84375 C 6.570312 -2.5625 6.6875 -2.207031 6.6875 -1.78125 C 6.6875 -1.207031 6.46875 -0.765625 6.03125 -0.453125 C 5.601562 -0.148438 4.976562 0 4.15625 0 L 1 0 L 1 -6.609375 L 3.953125 -6.609375 C 4.710938 -6.609375 5.296875 -6.457031 5.703125 -6.15625 C 6.117188 -5.851562 6.328125 -5.4375 6.328125 -4.90625 C 6.328125 -4.5625 6.242188 -4.257812 6.078125 -4 C 5.921875 -3.75 5.707031 -3.5625 5.4375 -3.4375 Z M 1.9375 -5.84375 L 1.9375 -3.734375 L 3.875 -3.734375 C 4.363281 -3.734375 4.738281 -3.820312 5 -4 C 5.257812 -4.175781 5.390625 -4.441406 5.390625 -4.796875 C 5.390625 -5.140625 5.257812 -5.398438 5 -5.578125 C 4.738281 -5.753906 4.363281 -5.84375 3.875 -5.84375 Z M 4.109375 -0.765625 C 4.648438 -0.765625 5.054688 -0.851562 5.328125 -1.03125 C 5.597656 -1.207031 5.734375 -1.484375 5.734375 -1.859375 C 5.734375 -2.597656 5.191406 -2.96875 4.109375 -2.96875 L 1.9375 -2.96875 L 1.9375 -0.765625 Z M 4.109375 -0.765625 "/></g></g></g><g fill="#990000" fill-opacity="1"><g transform="translate(116.064807, 56.40441)"><g><path d="M 1 -6.609375 L 1.9375 -6.609375 L 1.9375 0 L 1 0 Z M 1 -6.609375 "/></g></g></g><g fill="#990000" fill-opacity="1"><g transform="translate(121.45481, 56.40441)"><g><path d="M 5.4375 -3.4375 C 5.820312 -3.320312 6.125 -3.125 6.34375 -2.84375 C 6.570312 -2.5625 6.6875 -2.207031 6.6875 -1.78125 C 6.6875 -1.207031 6.46875 -0.765625 6.03125 -0.453125 C 5.601562 -0.148438 4.976562 0 4.15625 0 L 1 0 L 1 -6.609375 L 3.953125 -6.609375 C 4.710938 -6.609375 5.296875 -6.457031 5.703125 -6.15625 C 6.117188 -5.851562 6.328125 -5.4375 6.328125 -4.90625 C 6.328125 -4.5625 6.242188 -4.257812 6.078125 -4 C 5.921875 -3.75 5.707031 -3.5625 5.4375 -3.4375 Z M 1.9375 -5.84375 L 1.9375 -3.734375 L 3.875 -3.734375 C 4.363281 -3.734375 4.738281 -3.820312 5 -4 C 5.257812 -4.175781 5.390625 -4.441406 5.390625 -4.796875 C 5.390625 -5.140625 5.257812 -5.398438 5 -5.578125 C 4.738281 -5.753906 4.363281 -5.84375 3.875 -5.84375 Z M 4.109375 -0.765625 C 4.648438 -0.765625 5.054688 -0.851562 5.328125 -1.03125 C 5.597656 -1.207031 5.734375 -1.484375 5.734375 -1.859375 C 5.734375 -2.597656 5.191406 -2.96875 4.109375 -2.96875 L 1.9375 -2.96875 L 1.9375 -0.765625 Z M 4.109375 -0.765625 "/></g></g></g><g fill="#990000" fill-opacity="1"><g transform="translate(131.070664, 56.40441)"><g><path d="M 1 -6.609375 L 1.9375 -6.609375 L 1.9375 -0.828125 L 5.515625 -0.828125 L 5.515625 0 L 1 0 Z M 1 -6.609375 "/></g></g></g><g fill="#990000" fill-opacity="1"><g transform="translate(139.145549, 56.40441)"><g><path d="M 1 -6.609375 L 1.9375 -6.609375 L 1.9375 0 L 1 0 Z M 1 -6.609375 "/></g></g></g><g fill="#990000" fill-opacity="1"><g transform="translate(144.535552, 56.40441)"><g><path d="M 3.984375 0.078125 C 3.316406 0.078125 2.710938 -0.0664062 2.171875 -0.359375 C 1.640625 -0.648438 1.21875 -1.054688 0.90625 -1.578125 C 0.601562 -2.097656 0.453125 -2.675781 0.453125 -3.3125 C 0.453125 -3.945312 0.601562 -4.519531 0.90625 -5.03125 C 1.21875 -5.550781 1.640625 -5.957031 2.171875 -6.25 C 2.710938 -6.539062 3.316406 -6.6875 3.984375 -6.6875 C 4.640625 -6.6875 5.234375 -6.539062 5.765625 -6.25 C 6.304688 -5.957031 6.726562 -5.550781 7.03125 -5.03125 C 7.332031 -4.519531 7.484375 -3.945312 7.484375 -3.3125 C 7.484375 -2.664062 7.332031 -2.082031 7.03125 -1.5625 C 6.726562 -1.050781 6.304688 -0.648438 5.765625 -0.359375 C 5.234375 -0.0664062 4.640625 0.078125 3.984375 0.078125 Z M 3.984375 -0.765625 C 4.460938 -0.765625 4.894531 -0.875 5.28125 -1.09375 C 5.675781 -1.3125 5.984375 -1.613281 6.203125 -2 C 6.429688 -2.394531 6.546875 -2.832031 6.546875 -3.3125 C 6.546875 -3.789062 6.429688 -4.222656 6.203125 -4.609375 C 5.984375 -4.992188 5.675781 -5.296875 5.28125 -5.515625 C 4.894531 -5.734375 4.460938 -5.84375 3.984375 -5.84375 C 3.492188 -5.84375 3.050781 -5.734375 2.65625 -5.515625 C 2.257812 -5.296875 1.953125 -4.992188 1.734375 -4.609375 C 1.515625 -4.222656 1.40625 -3.789062 1.40625 -3.3125 C 1.40625 -2.832031 1.515625 -2.394531 1.734375 -2 C 1.953125 -1.613281 2.257812 -1.3125 2.65625 -1.09375 C 3.050781 -0.875 3.492188 -0.765625 3.984375 -0.765625 Z M 3.984375 -0.765625 "/></g></g></g><g fill="#990000" fill-opacity="1"><g transform="translate(154.936068, 56.40441)"><g><path d="M 5.578125 -3.34375 L 6.484375 -3.34375 L 6.484375 -0.765625 C 6.160156 -0.492188 5.78125 -0.285156 5.34375 -0.140625 C 4.90625 0.00390625 4.453125 0.078125 3.984375 0.078125 C 3.316406 0.078125 2.710938 -0.0664062 2.171875 -0.359375 C 1.640625 -0.648438 1.21875 -1.050781 0.90625 -1.5625 C 0.601562 -2.082031 0.453125 -2.664062 0.453125 -3.3125 C 0.453125 -3.945312 0.601562 -4.523438 0.90625 -5.046875 C 1.21875 -5.566406 1.640625 -5.96875 2.171875 -6.25 C 2.710938 -6.539062 3.320312 -6.6875 4 -6.6875 C 4.53125 -6.6875 5.007812 -6.597656 5.4375 -6.421875 C 5.875 -6.253906 6.242188 -6.003906 6.546875 -5.671875 L 5.953125 -5.078125 C 5.421875 -5.585938 4.78125 -5.84375 4.03125 -5.84375 C 3.53125 -5.84375 3.078125 -5.734375 2.671875 -5.515625 C 2.273438 -5.304688 1.960938 -5.003906 1.734375 -4.609375 C 1.515625 -4.222656 1.40625 -3.789062 1.40625 -3.3125 C 1.40625 -2.832031 1.515625 -2.394531 1.734375 -2 C 1.960938 -1.613281 2.273438 -1.3125 2.671875 -1.09375 C 3.078125 -0.875 3.53125 -0.765625 4.03125 -0.765625 C 4.625 -0.765625 5.140625 -0.90625 5.578125 -1.1875 Z M 5.578125 -3.34375 "/></g></g></g><g fill="#990000" fill-opacity="1"><g transform="translate(164.693726, 56.40441)"><g><path d="M 5.421875 0 L 3.984375 -2.03125 C 3.804688 -2.019531 3.671875 -2.015625 3.578125 -2.015625 L 1.9375 -2.015625 L 1.9375 0 L 1 0 L 1 -6.609375 L 3.578125 -6.609375 C 4.429688 -6.609375 5.101562 -6.40625 5.59375 -6 C 6.082031 -5.59375 6.328125 -5.03125 6.328125 -4.3125 C 6.328125 -3.800781 6.203125 -3.363281 5.953125 -3 C 5.703125 -2.644531 5.34375 -2.382812 4.875 -2.21875 L 6.453125 0 Z M 3.546875 -2.8125 C 4.140625 -2.8125 4.59375 -2.941406 4.90625 -3.203125 C 5.226562 -3.460938 5.390625 -3.832031 5.390625 -4.3125 C 5.390625 -4.789062 5.226562 -5.15625 4.90625 -5.40625 C 4.59375 -5.664062 4.140625 -5.796875 3.546875 -5.796875 L 1.9375 -5.796875 L 1.9375 -2.8125 Z M 3.546875 -2.8125 "/></g></g></g><g fill="#990000" fill-opacity="1"><g transform="translate(174.025961, 56.40441)"><g><path d="M 5.203125 -1.65625 L 1.6875 -1.65625 L 0.96875 0 L -0.015625 0 L 2.984375 -6.609375 L 3.921875 -6.609375 L 6.921875 0 L 5.9375 0 Z M 4.875 -2.40625 L 3.453125 -5.65625 L 2.015625 -2.40625 Z M 1.734375 -8.390625 L 2.890625 -8.390625 L 4.171875 -7.15625 L 3.3125 -7.15625 Z M 1.734375 -8.390625 "/></g></g></g><g fill="#990000" fill-opacity="1"><g transform="translate(183.405471, 56.40441)"><g><path d="M 1.9375 -5.796875 L 1.9375 -3.484375 L 5.25 -3.484375 L 5.25 -2.671875 L 1.9375 -2.671875 L 1.9375 0 L 1 0 L 1 -6.609375 L 5.65625 -6.609375 L 5.65625 -5.796875 Z M 1.9375 -5.796875 "/></g></g></g><g fill="#990000" fill-opacity="1"><g transform="translate(191.867963, 56.40441)"><g><path d="M 1 -6.609375 L 1.9375 -6.609375 L 1.9375 0 L 1 0 Z M 1 -6.609375 "/></g></g></g><g fill="#990000" fill-opacity="1"><g transform="translate(197.257977, 56.40441)"><g><path d="M 7.8125 0.609375 C 7.59375 0.859375 7.34375 1.046875 7.0625 1.171875 C 6.78125 1.304688 6.472656 1.375 6.140625 1.375 C 5.722656 1.375 5.332031 1.273438 4.96875 1.078125 C 4.613281 0.878906 4.203125 0.539062 3.734375 0.0625 C 3.109375 0.03125 2.546875 -0.132812 2.046875 -0.4375 C 1.546875 -0.738281 1.15625 -1.140625 0.875 -1.640625 C 0.59375 -2.140625 0.453125 -2.695312 0.453125 -3.3125 C 0.453125 -3.945312 0.601562 -4.519531 0.90625 -5.03125 C 1.21875 -5.550781 1.640625 -5.957031 2.171875 -6.25 C 2.710938 -6.539062 3.316406 -6.6875 3.984375 -6.6875 C 4.640625 -6.6875 5.234375 -6.539062 5.765625 -6.25 C 6.304688 -5.957031 6.726562 -5.550781 7.03125 -5.03125 C 7.332031 -4.519531 7.484375 -3.945312 7.484375 -3.3125 C 7.484375 -2.769531 7.375 -2.269531 7.15625 -1.8125 C 6.9375 -1.363281 6.628906 -0.984375 6.234375 -0.671875 C 5.847656 -0.359375 5.398438 -0.144531 4.890625 -0.03125 C 5.109375 0.207031 5.316406 0.378906 5.515625 0.484375 C 5.722656 0.585938 5.9375 0.640625 6.15625 0.640625 C 6.625 0.640625 7.023438 0.445312 7.359375 0.0625 Z M 1.40625 -3.3125 C 1.40625 -2.832031 1.515625 -2.394531 1.734375 -2 C 1.953125 -1.613281 2.257812 -1.3125 2.65625 -1.09375 C 3.050781 -0.875 3.492188 -0.765625 3.984375 -0.765625 C 4.460938 -0.765625 4.894531 -0.875 5.28125 -1.09375 C 5.675781 -1.3125 5.984375 -1.613281 6.203125 -2 C 6.429688 -2.394531 6.546875 -2.832031 6.546875 -3.3125 C 6.546875 -3.789062 6.429688 -4.222656 6.203125 -4.609375 C 5.984375 -4.992188 5.675781 -5.296875 5.28125 -5.515625 C 4.894531 -5.734375 4.460938 -5.84375 3.984375 -5.84375 C 3.492188 -5.84375 3.050781 -5.734375 2.65625 -5.515625 C 2.257812 -5.296875 1.953125 -4.992188 1.734375 -4.609375 C 1.515625 -4.222656 1.40625 -3.789062 1.40625 -3.3125 Z M 1.40625 -3.3125 "/></g></g></g><g fill="#990000" fill-opacity="1"><g transform="translate(207.658505, 56.40441)"><g><path d="M 3.734375 0.078125 C 2.847656 0.078125 2.160156 -0.171875 1.671875 -0.671875 C 1.179688 -1.179688 0.9375 -1.910156 0.9375 -2.859375 L 0.9375 -6.609375 L 1.875 -6.609375 L 1.875 -2.890625 C 1.875 -1.472656 2.5 -0.765625 3.75 -0.765625 C 4.351562 -0.765625 4.8125 -0.9375 5.125 -1.28125 C 5.445312 -1.632812 5.609375 -2.171875 5.609375 -2.890625 L 5.609375 -6.609375 L 6.53125 -6.609375 L 6.53125 -2.859375 C 6.53125 -1.898438 6.285156 -1.171875 5.796875 -0.671875 C 5.304688 -0.171875 4.617188 0.078125 3.734375 0.078125 Z M 3.734375 0.078125 "/></g></g></g><g fill="#990000" fill-opacity="1"><g transform="translate(217.595783, 56.40441)"><g><path d="M 5.796875 -0.828125 L 5.796875 0 L 1 0 L 1 -6.609375 L 5.65625 -6.609375 L 5.65625 -5.796875 L 1.9375 -5.796875 L 1.9375 -3.765625 L 5.25 -3.765625 L 5.25 -2.953125 L 1.9375 -2.953125 L 1.9375 -0.828125 Z M 5.796875 -0.828125 "/></g></g></g><g fill="#990000" fill-opacity="1"><g transform="translate(226.38917, 56.40441)"><g><path d="M 2.921875 0.078125 C 2.421875 0.078125 1.9375 0 1.46875 -0.15625 C 1.007812 -0.3125 0.648438 -0.507812 0.390625 -0.75 L 0.734375 -1.5 C 0.984375 -1.269531 1.304688 -1.082031 1.703125 -0.9375 C 2.097656 -0.800781 2.503906 -0.734375 2.921875 -0.734375 C 3.472656 -0.734375 3.882812 -0.820312 4.15625 -1 C 4.425781 -1.1875 4.5625 -1.4375 4.5625 -1.75 C 4.5625 -1.976562 4.484375 -2.160156 4.328125 -2.296875 C 4.179688 -2.441406 4 -2.550781 3.78125 -2.625 C 3.5625 -2.695312 3.253906 -2.785156 2.859375 -2.890625 C 2.367188 -3.003906 1.96875 -3.117188 1.65625 -3.234375 C 1.351562 -3.359375 1.09375 -3.546875 0.875 -3.796875 C 0.65625 -4.046875 0.546875 -4.378906 0.546875 -4.796875 C 0.546875 -5.148438 0.640625 -5.46875 0.828125 -5.75 C 1.015625 -6.039062 1.296875 -6.269531 1.671875 -6.4375 C 2.046875 -6.601562 2.515625 -6.6875 3.078125 -6.6875 C 3.472656 -6.6875 3.859375 -6.632812 4.234375 -6.53125 C 4.609375 -6.4375 4.929688 -6.296875 5.203125 -6.109375 L 4.890625 -5.34375 C 4.617188 -5.519531 4.320312 -5.65625 4 -5.75 C 3.6875 -5.84375 3.378906 -5.890625 3.078125 -5.890625 C 2.546875 -5.890625 2.144531 -5.789062 1.875 -5.59375 C 1.601562 -5.394531 1.46875 -5.144531 1.46875 -4.84375 C 1.46875 -4.613281 1.539062 -4.425781 1.6875 -4.28125 C 1.84375 -4.144531 2.03125 -4.035156 2.25 -3.953125 C 2.476562 -3.878906 2.785156 -3.796875 3.171875 -3.703125 C 3.671875 -3.585938 4.070312 -3.46875 4.375 -3.34375 C 4.675781 -3.226562 4.9375 -3.046875 5.15625 -2.796875 C 5.375 -2.546875 5.484375 -2.21875 5.484375 -1.8125 C 5.484375 -1.457031 5.390625 -1.132812 5.203125 -0.84375 C 5.015625 -0.5625 4.726562 -0.335938 4.34375 -0.171875 C 3.957031 -0.00390625 3.484375 0.078125 2.921875 0.078125 Z M 2.921875 0.078125 "/></g></g></g><g fill="#990000" fill-opacity="1"><g transform="translate(234.727246, 56.40441)"><g/></g></g><g fill="#990000" fill-opacity="1"><g transform="translate(65.151996, 69.816747)"><g><path d="M 5.796875 -0.828125 L 5.796875 0 L 1 0 L 1 -6.609375 L 5.65625 -6.609375 L 5.65625 -5.796875 L 1.9375 -5.796875 L 1.9375 -3.765625 L 5.25 -3.765625 L 5.25 -2.953125 L 1.9375 -2.953125 L 1.9375 -0.828125 Z M 5.796875 -0.828125 "/></g></g></g><g fill="#990000" fill-opacity="1"><g transform="translate(73.945377, 69.816747)"><g><path d="M 6.6875 -6.609375 L 6.6875 0 L 5.90625 0 L 1.9375 -4.9375 L 1.9375 0 L 1 0 L 1 -6.609375 L 1.765625 -6.609375 L 5.734375 -1.6875 L 5.734375 -6.609375 Z M 6.6875 -6.609375 "/></g></g></g><g fill="#990000" fill-opacity="1"><g transform="translate(84.081187, 69.816747)"><g/></g></g><g fill="#990000" fill-opacity="1"><g transform="translate(89.083587, 69.816747)"><g><path d="M 1 -6.609375 L 1.9375 -6.609375 L 1.9375 0 L 1 0 Z M 1 -6.609375 "/></g></g></g><g fill="#990000" fill-opacity="1"><g transform="translate(94.473595, 69.816747)"><g><path d="M 6.6875 -6.609375 L 6.6875 0 L 5.90625 0 L 1.9375 -4.9375 L 1.9375 0 L 1 0 L 1 -6.609375 L 1.765625 -6.609375 L 5.734375 -1.6875 L 5.734375 -6.609375 Z M 6.6875 -6.609375 "/></g></g></g><g fill="#990000" fill-opacity="1"><g transform="translate(104.609406, 69.816747)"><g><path d="M 1.9375 -5.796875 L 1.9375 -3.484375 L 5.25 -3.484375 L 5.25 -2.671875 L 1.9375 -2.671875 L 1.9375 0 L 1 0 L 1 -6.609375 L 5.65625 -6.609375 L 5.65625 -5.796875 Z M 1.9375 -5.796875 "/></g></g></g><g fill="#990000" fill-opacity="1"><g transform="translate(113.071901, 69.816747)"><g><path d="M 5.796875 -0.828125 L 5.796875 0 L 1 0 L 1 -6.609375 L 5.65625 -6.609375 L 5.65625 -5.796875 L 1.9375 -5.796875 L 1.9375 -3.765625 L 5.25 -3.765625 L 5.25 -2.953125 L 1.9375 -2.953125 L 1.9375 -0.828125 Z M 5.796875 -0.828125 "/></g></g></g><g fill="#990000" fill-opacity="1"><g transform="translate(121.865282, 69.816747)"><g><path d="M 5.421875 0 L 3.984375 -2.03125 C 3.804688 -2.019531 3.671875 -2.015625 3.578125 -2.015625 L 1.9375 -2.015625 L 1.9375 0 L 1 0 L 1 -6.609375 L 3.578125 -6.609375 C 4.429688 -6.609375 5.101562 -6.40625 5.59375 -6 C 6.082031 -5.59375 6.328125 -5.03125 6.328125 -4.3125 C 6.328125 -3.800781 6.203125 -3.363281 5.953125 -3 C 5.703125 -2.644531 5.34375 -2.382812 4.875 -2.21875 L 6.453125 0 Z M 3.546875 -2.8125 C 4.140625 -2.8125 4.59375 -2.941406 4.90625 -3.203125 C 5.226562 -3.460938 5.390625 -3.832031 5.390625 -4.3125 C 5.390625 -4.789062 5.226562 -5.15625 4.90625 -5.40625 C 4.59375 -5.664062 4.140625 -5.796875 3.546875 -5.796875 L 1.9375 -5.796875 L 1.9375 -2.8125 Z M 3.546875 -2.8125 "/></g></g></g><g fill="#990000" fill-opacity="1"><g transform="translate(131.197523, 69.816747)"><g><path d="M 7.125 0 L 7.125 -4.828125 L 4.71875 -0.796875 L 4.296875 -0.796875 L 1.90625 -4.796875 L 1.90625 0 L 1 0 L 1 -6.609375 L 1.765625 -6.609375 L 4.53125 -1.96875 L 7.25 -6.609375 L 8.03125 -6.609375 L 8.03125 0 Z M 7.125 0 "/></g></g></g><g fill="#990000" fill-opacity="1"><g transform="translate(142.685234, 69.816747)"><g><path d="M 5.796875 -0.828125 L 5.796875 0 L 1 0 L 1 -6.609375 L 5.65625 -6.609375 L 5.65625 -5.796875 L 1.9375 -5.796875 L 1.9375 -3.765625 L 5.25 -3.765625 L 5.25 -2.953125 L 1.9375 -2.953125 L 1.9375 -0.828125 Z M 5.796875 -0.828125 "/></g></g></g><g fill="#990000" fill-opacity="1"><g transform="translate(151.478615, 69.816747)"><g><path d="M 5.421875 0 L 3.984375 -2.03125 C 3.804688 -2.019531 3.671875 -2.015625 3.578125 -2.015625 L 1.9375 -2.015625 L 1.9375 0 L 1 0 L 1 -6.609375 L 3.578125 -6.609375 C 4.429688 -6.609375 5.101562 -6.40625 5.59375 -6 C 6.082031 -5.59375 6.328125 -5.03125 6.328125 -4.3125 C 6.328125 -3.800781 6.203125 -3.363281 5.953125 -3 C 5.703125 -2.644531 5.34375 -2.382812 4.875 -2.21875 L 6.453125 0 Z M 3.546875 -2.8125 C 4.140625 -2.8125 4.59375 -2.941406 4.90625 -3.203125 C 5.226562 -3.460938 5.390625 -3.832031 5.390625 -4.3125 C 5.390625 -4.789062 5.226562 -5.15625 4.90625 -5.40625 C 4.59375 -5.664062 4.140625 -5.796875 3.546875 -5.796875 L 1.9375 -5.796875 L 1.9375 -2.8125 Z M 3.546875 -2.8125 "/></g></g></g><g fill="#990000" fill-opacity="1"><g transform="translate(160.810856, 69.816747)"><g><path d="M 1 -6.609375 L 1.9375 -6.609375 L 1.9375 0 L 1 0 Z M 1 -6.609375 "/></g></g></g><g fill="#990000" fill-opacity="1"><g transform="translate(166.200859, 69.816747)"><g><path d="M 5.203125 -1.65625 L 1.6875 -1.65625 L 0.96875 0 L -0.015625 0 L 2.984375 -6.609375 L 3.921875 -6.609375 L 6.921875 0 L 5.9375 0 Z M 4.875 -2.40625 L 3.453125 -5.65625 L 2.015625 -2.40625 Z M 4.875 -2.40625 "/></g></g></g></svg>